<svg width="26" height="26" viewBox="0 0 26 26" fill="none" xmlns="http://www.w3.org/2000/svg">
<path d="M13 0C5.81649 0 0 5.8299 0 13C0 20.1701 5.8299 26 13 26C20.1701 26 26 20.1701 26 13C26 5.8299 20.1835 0 13 0ZM16.5784 8.51031H15.3588C15.3588 8.51031 14.1794 8.75155 14.1794 9.62268V11.4186H16.5381L16.1629 13.7505H14.2062C14.2062 13.7505 14.2866 19.8082 14.2464 19.7546H11.5794V13.8175H9.42165V11.4186H11.5124V8.77835C11.5124 8.77835 11.8474 5.40103 16.5784 6.4866V8.51031Z" fill="#828282"/>
</svg>
