<svg width="94" height="35" viewBox="0 0 94 35" fill="none" xmlns="http://www.w3.org/2000/svg">
<rect x="0.103271" width="93.8967" height="34.9367" rx="5" fill="#090909"/>
<g filter="url(#filter0_ii_263_36108)">
<path d="M9.47338 8.84691C9.27084 9.06212 9.15112 9.39611 9.15112 9.82863V25.2818C9.15112 25.715 9.27084 26.0483 9.47338 26.2636C9.50191 26.2914 9.54755 26.2911 9.5757 26.2629L18.0758 17.7295C18.122 17.6832 18.1478 17.6206 18.1478 17.5552C18.1478 17.4899 18.122 17.4272 18.0759 17.3809L9.57604 8.84726C9.54776 8.81887 9.50185 8.81871 9.47338 8.84691Z" fill="url(#paint0_linear_263_36108)"/>
<path d="M21.0865 20.5073C21.0478 20.5288 20.9995 20.522 20.9683 20.4906L18.2192 17.7295C18.1731 17.6832 18.1472 17.6205 18.1472 17.5552C18.1472 17.4898 18.1731 17.4272 18.2192 17.3809L20.9691 14.6202C21.0002 14.589 21.0483 14.5826 21.0865 14.6044L24.4921 16.5469C25.4644 17.1017 25.4644 18.0093 24.4921 18.5648L21.0865 20.5073Z" fill="url(#paint1_linear_263_36108)"/>
<g filter="url(#filter1_i_263_36108)">
<path d="M19.0401 21.6738C20.0715 21.0855 20.2619 19.6778 19.4239 18.8366C18.7195 18.1294 17.5746 18.1294 16.8702 18.8366L10.5789 25.153C9.96237 25.772 10.1604 26.7385 10.9196 26.3063L19.0401 21.6738Z" fill="url(#paint2_linear_263_36108)"/>
</g>
<path d="M19.4246 16.2734C20.2623 15.432 20.0717 14.0245 19.0404 13.4363L10.9196 8.80416C10.1607 8.37122 9.96247 9.33859 10.5791 9.95761L16.8706 16.2737C17.5751 16.9809 18.7203 16.9808 19.4246 16.2734Z" fill="url(#paint3_linear_263_36108)"/>
</g>
<path d="M47.0924 15.0878C45.5463 15.0878 44.2861 16.2632 44.2861 17.8821C44.2861 19.4912 45.5463 20.6765 47.0924 20.6765C48.6392 20.6765 49.8994 19.4912 49.8994 17.8821C49.8987 16.2632 48.6385 15.0878 47.0924 15.0878ZM47.0924 19.5766C46.2451 19.5766 45.5147 18.8782 45.5147 17.8828C45.5147 16.8769 46.2457 16.1889 47.0924 16.1889C47.9398 16.1889 48.6701 16.8769 48.6701 17.8828C48.6701 18.8775 47.9398 19.5766 47.0924 19.5766ZM40.9697 15.0878C39.4236 15.0878 38.1634 16.2632 38.1634 17.8821C38.1634 19.4912 39.4236 20.6765 40.9697 20.6765C42.5165 20.6765 43.7767 19.4912 43.7767 17.8821C43.7767 16.2632 42.5165 15.0878 40.9697 15.0878ZM40.9697 19.5766C40.1224 19.5766 39.392 18.8782 39.392 17.8828C39.392 16.8769 40.123 16.1889 40.9697 16.1889C41.817 16.1889 42.5474 16.8769 42.5474 17.8828C42.548 18.8775 41.817 19.5766 40.9697 19.5766ZM34.28 15.9457C33.9527 15.9458 33.6874 16.2111 33.6874 16.5384C33.6874 16.8658 33.9528 17.1311 34.2801 17.1311H35.0168C35.8175 17.1311 36.4998 17.9063 35.9797 18.5152C35.9476 18.5527 35.9143 18.5888 35.8797 18.6232C35.4669 19.0359 34.8207 19.4912 33.6874 19.4912C31.9401 19.4912 30.5741 18.0832 30.5741 16.3368C30.5741 14.5904 31.9401 13.1824 33.6874 13.1824C34.3766 13.1824 34.9298 13.3804 35.3761 13.6731C35.6441 13.8489 36.0064 13.8494 36.2331 13.6228C36.469 13.387 36.4671 12.9991 36.1986 12.8012C35.5531 12.3255 34.7413 11.9971 33.6874 11.9971C31.2939 11.9971 29.2817 13.9445 29.2817 16.3368C29.2817 18.729 31.2939 20.6765 33.6874 20.6765C34.9791 20.6765 35.954 20.2527 36.7159 19.459C37.4995 18.6758 37.7434 17.5746 37.7434 16.6857C37.7434 16.2527 37.3682 15.9452 36.9352 15.9453L34.28 15.9457ZM63.4713 16.8663C63.2386 16.2422 62.5287 15.0878 61.0779 15.0878C59.6376 15.0878 58.4405 16.2205 58.4405 17.8821C58.4405 19.4485 59.6271 20.6765 61.2153 20.6765C62.1323 20.6765 62.7729 20.2752 63.1757 19.8802C63.403 19.6572 63.33 19.2942 63.0651 19.1177C62.8032 18.9431 62.4578 19.0244 62.2154 19.2249C61.9494 19.4448 61.6229 19.5753 61.2153 19.5753C60.3023 19.5753 60.5814 18.4301 61.4251 18.0813L63.2829 17.3134C63.4576 17.2411 63.5416 17.0418 63.4713 16.8663ZM61.1487 17.1796C60.4295 17.4781 59.6977 16.8482 60.3464 16.4174C60.5963 16.2515 60.8769 16.1679 61.1206 16.1679C61.1793 16.1679 61.2369 16.1715 61.2931 16.1783C61.8954 16.2516 61.7091 16.9471 61.1487 17.1796ZM56.6196 19.8936C56.6196 20.2327 56.8945 20.5076 57.2336 20.5076C57.5727 20.5076 57.8476 20.2327 57.8476 19.8936V12.908C57.8476 12.5689 57.5727 12.294 57.2336 12.294C56.8945 12.294 56.6196 12.5689 56.6196 12.908V19.8936ZM54.6068 15.6839C54.6068 15.6998 54.5939 15.7126 54.5781 15.7126C54.5696 15.7126 54.5616 15.7089 54.5561 15.7024C54.2783 15.378 53.7525 15.0878 53.0928 15.0878C51.6946 15.0878 50.4134 16.3157 50.4134 17.8933C50.4134 19.4596 51.6946 20.6771 53.0928 20.6771C53.7532 20.6771 54.2784 20.3869 54.5561 20.0528C54.5616 20.0462 54.5697 20.0424 54.5782 20.0424C54.594 20.0424 54.6068 20.0552 54.6068 20.071V20.4445C54.6068 21.5135 54.0348 22.0852 53.1139 22.0852C52.6282 22.0852 52.2618 21.8602 52.0119 21.5782C51.7997 21.3388 51.4661 21.1898 51.1707 21.3127C50.8751 21.4356 50.7317 21.7792 50.9154 22.0414C51.3309 22.635 52.0586 23.1863 53.1139 23.1863C54.5542 23.1863 55.7723 22.3394 55.7723 20.275V15.8408C55.7723 15.5189 55.5113 15.2579 55.1894 15.2579H54.8347C54.7091 15.2579 54.6073 15.3597 54.6071 15.4853L54.6068 15.6839ZM53.1987 19.5766C52.3513 19.5766 51.642 18.867 51.642 17.8933C51.642 16.9084 52.3513 16.1889 53.1987 16.1889C54.0348 16.1889 54.6916 16.9084 54.6916 17.8933C54.6916 18.867 54.0348 19.5766 53.1987 19.5766ZM69.2259 12.294C67.6027 12.294 66.2868 13.6099 66.2868 15.2331V19.8946C66.2868 20.2332 66.5613 20.5076 66.8998 20.5076C67.2384 20.5076 67.5128 20.2332 67.5128 19.8946V18.9518C67.5128 18.0925 68.2094 17.3959 69.0687 17.3959H69.2253C70.5847 17.3959 71.9218 16.4123 71.9218 14.8453C71.9218 13.2783 70.5853 12.294 69.2259 12.294ZM69.2575 16.2527H68.9205C68.1431 16.2527 67.5128 15.6224 67.5128 14.845C67.5128 14.0675 68.1431 13.4373 68.9205 13.4373H69.2575C70.1745 13.4373 70.6951 14.1962 70.6951 14.8453C70.6951 15.4813 70.1745 16.2527 69.2575 16.2527ZM76.8382 15.0733C76.1513 15.0733 75.4455 15.3072 74.9848 15.8142C74.7564 16.0656 74.9071 16.4382 75.2206 16.5689C75.5129 16.6908 75.8414 16.5421 76.109 16.3726C76.3266 16.2348 76.5893 16.1824 76.8592 16.1824C77.4936 16.1824 78.1385 16.5628 78.149 17.2389C78.149 17.2767 78.1081 17.3007 78.0744 17.2837C77.83 17.1605 77.3924 17.0069 76.8698 17.0069C75.6964 17.0069 74.5013 17.6515 74.5013 18.8558C74.5013 19.9551 75.4637 20.6627 76.5417 20.6627C77.3583 20.6627 77.8123 20.2997 78.0981 19.8714C78.1032 19.8637 78.1118 19.8591 78.121 19.8591C78.1361 19.8591 78.1483 19.8714 78.1483 19.8865V20.1761C78.1483 20.3512 78.2903 20.4932 78.4654 20.4932H78.7406C79.0677 20.4932 79.3329 20.228 79.3329 19.9009V17.344C79.3336 15.8867 78.2437 15.0733 76.8382 15.0733ZM76.6896 19.5746C76.2887 19.5746 75.7279 19.3736 75.7279 18.8769C75.7279 18.2428 76.426 17.9997 77.0288 17.9997C77.726 17.9997 78.1363 18.8336 77.5863 19.2619C77.3319 19.4601 77.0164 19.5746 76.6896 19.5746ZM84.0671 15.2527C83.8133 15.2527 83.5853 15.4078 83.4921 15.6438L82.2482 18.7941C82.2435 18.806 82.232 18.8138 82.2193 18.8138C82.2066 18.8138 82.1952 18.8061 82.1904 18.7945L80.8916 15.625C80.7993 15.3998 80.58 15.2527 80.3366 15.2527C79.9036 15.2527 79.6133 15.6975 79.7876 16.0939L81.333 19.6086C81.5068 20.004 81.5048 20.4545 81.3274 20.8482L80.7276 22.1791C80.5544 22.5634 80.8355 22.9984 81.2571 22.9984C81.4882 22.9984 81.6973 22.8614 81.7896 22.6495L84.6339 16.1177C84.8117 15.7094 84.5125 15.2527 84.0671 15.2527ZM72.5989 19.8946C72.5989 20.2332 72.8733 20.5076 73.2118 20.5076C73.5504 20.5076 73.8248 20.2332 73.8248 19.8946V12.907C73.8248 12.5685 73.5504 12.294 73.2118 12.294C72.8733 12.294 72.5989 12.5685 72.5989 12.907V19.8946Z" fill="white"/>
<defs>
<filter id="filter0_ii_263_36108" x="9.15112" y="8.69629" width="16.0702" height="17.7178" filterUnits="userSpaceOnUse" color-interpolation-filters="sRGB">
<feFlood flood-opacity="0" result="BackgroundImageFix"/>
<feBlend mode="normal" in="SourceGraphic" in2="BackgroundImageFix" result="shape"/>
<feColorMatrix in="SourceAlpha" type="matrix" values="0 0 0 0 0 0 0 0 0 0 0 0 0 0 0 0 0 0 127 0" result="hardAlpha"/>
<feOffset dy="-0.795"/>
<feComposite in2="hardAlpha" operator="arithmetic" k2="-1" k3="1"/>
<feColorMatrix type="matrix" values="0 0 0 0 0 0 0 0 0 0 0 0 0 0 0 0 0 0 0.12 0"/>
<feBlend mode="normal" in2="shape" result="effect1_innerShadow_263_36108"/>
<feColorMatrix in="SourceAlpha" type="matrix" values="0 0 0 0 0 0 0 0 0 0 0 0 0 0 0 0 0 0 127 0" result="hardAlpha"/>
<feOffset dy="0.795"/>
<feComposite in2="hardAlpha" operator="arithmetic" k2="-1" k3="1"/>
<feColorMatrix type="matrix" values="0 0 0 0 1 0 0 0 0 1 0 0 0 0 1 0 0 0 0.25 0"/>
<feBlend mode="normal" in2="effect1_innerShadow_263_36108" result="effect2_innerShadow_263_36108"/>
</filter>
<filter id="filter1_i_263_36108" x="10.2137" y="18.3062" width="9.73572" height="8.10791" filterUnits="userSpaceOnUse" color-interpolation-filters="sRGB">
<feFlood flood-opacity="0" result="BackgroundImageFix"/>
<feBlend mode="normal" in="SourceGraphic" in2="BackgroundImageFix" result="shape"/>
<feColorMatrix in="SourceAlpha" type="matrix" values="0 0 0 0 0 0 0 0 0 0 0 0 0 0 0 0 0 0 127 0" result="hardAlpha"/>
<feOffset dy="-0.795"/>
<feComposite in2="hardAlpha" operator="arithmetic" k2="-1" k3="1"/>
<feColorMatrix type="matrix" values="0 0 0 0 0 0 0 0 0 0 0 0 0 0 0 0 0 0 0.08 0"/>
<feBlend mode="normal" in2="shape" result="effect1_innerShadow_263_36108"/>
</filter>
<linearGradient id="paint0_linear_263_36108" x1="17.3835" y1="9.66512" x2="5.65741" y2="21.3456" gradientUnits="userSpaceOnUse">
<stop stop-color="#00A0FF"/>
<stop offset="0.0066" stop-color="#00A1FF"/>
<stop offset="0.2601" stop-color="#00BEFF"/>
<stop offset="0.5122" stop-color="#00D2FF"/>
<stop offset="0.7604" stop-color="#00DFFF"/>
<stop offset="1" stop-color="#00E3FF"/>
</linearGradient>
<linearGradient id="paint1_linear_263_36108" x1="25.7578" y1="17.5552" x2="8.91705" y2="17.5552" gradientUnits="userSpaceOnUse">
<stop stop-color="#FFE000"/>
<stop offset="0.4087" stop-color="#FFBD00"/>
<stop offset="0.7754" stop-color="#FFA500"/>
<stop offset="1" stop-color="#FF9C00"/>
</linearGradient>
<linearGradient id="paint2_linear_263_36108" x1="19.4904" y1="19.1575" x2="3.5884" y2="34.9977" gradientUnits="userSpaceOnUse">
<stop stop-color="#FF3A44"/>
<stop offset="1" stop-color="#C31162"/>
</linearGradient>
<linearGradient id="paint3_linear_263_36108" x1="7.28875" y1="3.70326" x2="14.3894" y2="10.7764" gradientUnits="userSpaceOnUse">
<stop stop-color="#32A071"/>
<stop offset="0.0685" stop-color="#2DA771"/>
<stop offset="0.4762" stop-color="#15CF74"/>
<stop offset="0.8009" stop-color="#06E775"/>
<stop offset="1" stop-color="#00F076"/>
</linearGradient>
</defs>
</svg>
