<svg width="70" height="70" viewBox="0 0 70 70" fill="none" xmlns="http://www.w3.org/2000/svg">
<path d="M1.16667 9.33333C1.47609 9.33333 1.77283 9.21042 1.99162 8.99162C2.21042 8.77283 2.33333 8.47609 2.33333 8.16667V2.33333H8.16667C8.47609 2.33333 8.77283 2.21042 8.99162 1.99162C9.21042 1.77283 9.33333 1.47609 9.33333 1.16667C9.33333 0.857247 9.21042 0.560501 8.99162 0.341709C8.77283 0.122916 8.47609 0 8.16667 0H1.16667C0.857247 0 0.560501 0.122916 0.341709 0.341709C0.122916 0.560501 0 0.857247 0 1.16667V8.16667C0 8.47609 0.122916 8.77283 0.341709 8.99162C0.560501 9.21042 0.857247 9.33333 1.16667 9.33333Z" fill="black"/>
<path d="M68.8337 0H61.8337C61.5242 0 61.2275 0.122916 61.0087 0.341709C60.7899 0.560501 60.667 0.857247 60.667 1.16667C60.667 1.47609 60.7899 1.77283 61.0087 1.99162C61.2275 2.21042 61.5242 2.33333 61.8337 2.33333H67.667V8.16667C67.667 8.47609 67.7899 8.77283 68.0087 8.99162C68.2275 9.21042 68.5242 9.33333 68.8337 9.33333C69.1431 9.33333 69.4398 9.21042 69.6586 8.99162C69.8774 8.77283 70.0003 8.47609 70.0003 8.16667V1.16667C70.0003 0.857247 69.8774 0.560501 69.6586 0.341709C69.4398 0.122916 69.1431 0 68.8337 0Z" fill="black"/>
<path d="M8.16667 67.6665H2.33333V61.8332C2.33333 61.5238 2.21042 61.227 1.99162 61.0082C1.77283 60.7894 1.47609 60.6665 1.16667 60.6665C0.857247 60.6665 0.560501 60.7894 0.341709 61.0082C0.122916 61.227 0 61.5238 0 61.8332V68.8332C0 69.1426 0.122916 69.4393 0.341709 69.6581C0.560501 69.8769 0.857247 69.9998 1.16667 69.9998H8.16667C8.47609 69.9998 8.77283 69.8769 8.99162 69.6581C9.21042 69.4393 9.33333 69.1426 9.33333 68.8332C9.33333 68.5238 9.21042 68.227 8.99162 68.0082C8.77283 67.7894 8.47609 67.6665 8.16667 67.6665Z" fill="black"/>
<path d="M68.8337 60.667C68.5242 60.667 68.2275 60.7899 68.0087 61.0087C67.7899 61.2275 67.667 61.5242 67.667 61.8337V67.667H61.8337C61.5242 67.667 61.2275 67.7899 61.0087 68.0087C60.7899 68.2275 60.667 68.5242 60.667 68.8337C60.667 69.1431 60.7899 69.4398 61.0087 69.6586C61.2275 69.8774 61.5242 70.0003 61.8337 70.0003H68.8337C69.1431 70.0003 69.4398 69.8774 69.6586 69.6586C69.8774 69.4398 70.0003 69.1431 70.0003 68.8337V61.8337C70.0003 61.5242 69.8774 61.2275 69.6586 61.0087C69.4398 60.7899 69.1431 60.667 68.8337 60.667Z" fill="black"/>
<path d="M21.0003 19.8337V5.83366C21.0003 5.52424 20.8774 5.22749 20.6586 5.0087C20.4398 4.78991 20.1431 4.66699 19.8337 4.66699H5.83366C5.52424 4.66699 5.22749 4.78991 5.0087 5.0087C4.78991 5.22749 4.66699 5.52424 4.66699 5.83366V19.8337C4.66699 20.1431 4.78991 20.4398 5.0087 20.6586C5.22749 20.8774 5.52424 21.0003 5.83366 21.0003H19.8337C20.1431 21.0003 20.4398 20.8774 20.6586 20.6586C20.8774 20.4398 21.0003 20.1431 21.0003 19.8337ZM18.667 18.667H7.00033V7.00033H18.667V18.667Z" fill="black"/>
<path d="M10.4997 16.333H15.1663C15.4758 16.333 15.7725 16.2101 15.9913 15.9913C16.2101 15.7725 16.333 15.4758 16.333 15.1663V10.4997C16.333 10.1903 16.2101 9.89351 15.9913 9.67472C15.7725 9.45592 15.4758 9.33301 15.1663 9.33301H10.4997C10.1903 9.33301 9.89351 9.45592 9.67472 9.67472C9.45592 9.89351 9.33301 10.1903 9.33301 10.4997V15.1663C9.33301 15.4758 9.45592 15.7725 9.67472 15.9913C9.89351 16.2101 10.1903 16.333 10.4997 16.333ZM11.6663 11.6663H13.9997V13.9997H11.6663V11.6663Z" fill="black"/>
<path d="M65.3333 5.83317C65.3333 5.52375 65.2104 5.22701 64.9916 5.00821C64.7728 4.78942 64.4761 4.6665 64.1667 4.6665H50.1667C49.8572 4.6665 49.5605 4.78942 49.3417 5.00821C49.1229 5.22701 49 5.52375 49 5.83317V19.8332C49 20.1426 49.1229 20.4393 49.3417 20.6581C49.5605 20.8769 49.8572 20.9998 50.1667 20.9998H64.1667C64.4761 20.9998 64.7728 20.8769 64.9916 20.6581C65.2104 20.4393 65.3333 20.1426 65.3333 19.8332V5.83317ZM63 18.6665H51.3333V6.99984H63V18.6665Z" fill="black"/>
<path d="M54.8337 16.333H59.5003C59.8097 16.333 60.1065 16.2101 60.3253 15.9913C60.5441 15.7725 60.667 15.4758 60.667 15.1663V10.4997C60.667 10.1903 60.5441 9.89351 60.3253 9.67472C60.1065 9.45592 59.8097 9.33301 59.5003 9.33301H54.8337C54.5242 9.33301 54.2275 9.45592 54.0087 9.67472C53.7899 9.89351 53.667 10.1903 53.667 10.4997V15.1663C53.667 15.4758 53.7899 15.7725 54.0087 15.9913C54.2275 16.2101 54.5242 16.333 54.8337 16.333ZM56.0003 11.6663H58.3337V13.9997H56.0003V11.6663Z" fill="black"/>
<path d="M19.8337 49H5.83366C5.52424 49 5.22749 49.1229 5.0087 49.3417C4.78991 49.5605 4.66699 49.8572 4.66699 50.1667V64.1667C4.66699 64.4761 4.78991 64.7728 5.0087 64.9916C5.22749 65.2104 5.52424 65.3333 5.83366 65.3333H19.8337C20.1431 65.3333 20.4398 65.2104 20.6586 64.9916C20.8774 64.7728 21.0003 64.4761 21.0003 64.1667V50.1667C21.0003 49.8572 20.8774 49.5605 20.6586 49.3417C20.4398 49.1229 20.1431 49 19.8337 49ZM18.667 63H7.00033V51.3333H18.667V63Z" fill="black"/>
<path d="M10.4997 60.667H15.1663C15.4758 60.667 15.7725 60.5441 15.9913 60.3253C16.2101 60.1065 16.333 59.8097 16.333 59.5003V54.8337C16.333 54.5242 16.2101 54.2275 15.9913 54.0087C15.7725 53.7899 15.4758 53.667 15.1663 53.667H10.4997C10.1903 53.667 9.89351 53.7899 9.67472 54.0087C9.45592 54.2275 9.33301 54.5242 9.33301 54.8337V59.5003C9.33301 59.8097 9.45592 60.1065 9.67472 60.3253C9.89351 60.5441 10.1903 60.667 10.4997 60.667ZM11.6663 56.0003H13.9997V58.3337H11.6663V56.0003Z" fill="black"/>
<path d="M29.1663 10.5003C29.4758 10.5003 29.7725 10.3774 29.9913 10.1586C30.2101 9.93982 30.333 9.64308 30.333 9.33366V5.83366C30.333 5.52424 30.2101 5.22749 29.9913 5.0087C29.7725 4.78991 29.4758 4.66699 29.1663 4.66699H24.4997C24.1903 4.66699 23.8935 4.78991 23.6747 5.0087C23.4559 5.22749 23.333 5.52424 23.333 5.83366C23.333 6.14308 23.4559 6.43982 23.6747 6.65862C23.8935 6.87741 24.1903 7.00033 24.4997 7.00033H27.9997V9.33366C27.9997 9.64308 28.1226 9.93982 28.3414 10.1586C28.5602 10.3774 28.8569 10.5003 29.1663 10.5003Z" fill="black"/>
<path d="M27.9997 19.833H33.833C34.1424 19.833 34.4392 19.7101 34.658 19.4913C34.8768 19.2725 34.9997 18.9758 34.9997 18.6663C34.9997 18.3569 34.8768 18.0602 34.658 17.8414C34.4392 17.6226 34.1424 17.4997 33.833 17.4997H29.1663V13.9997C29.1663 13.6903 29.0434 13.3935 28.8246 13.1747C28.6058 12.9559 28.3091 12.833 27.9997 12.833H25.6663V10.4997C25.6663 10.1903 25.5434 9.89351 25.3246 9.67472C25.1058 9.45592 24.8091 9.33301 24.4997 9.33301C24.1903 9.33301 23.8935 9.45592 23.6747 9.67472C23.4559 9.89351 23.333 10.1903 23.333 10.4997V13.9997C23.333 14.3091 23.4559 14.6058 23.6747 14.8246C23.8935 15.0434 24.1903 15.1663 24.4997 15.1663H26.833V18.6663C26.833 18.9758 26.9559 19.2725 27.1747 19.4913C27.3935 19.7101 27.6903 19.833 27.9997 19.833Z" fill="black"/>
<path d="M36.167 4.66699H33.8337C33.5242 4.66699 33.2275 4.78991 33.0087 5.0087C32.7899 5.22749 32.667 5.52424 32.667 5.83366C32.667 6.14308 32.7899 6.43982 33.0087 6.65862C33.2275 6.87741 33.5242 7.00033 33.8337 7.00033H36.167C36.4764 7.00033 36.7732 6.87741 36.992 6.65862C37.2107 6.43982 37.3337 6.14308 37.3337 5.83366C37.3337 5.52424 37.2107 5.22749 36.992 5.0087C36.7732 4.78991 36.4764 4.66699 36.167 4.66699Z" fill="black"/>
<path d="M44.3333 4.6665H40.8333C40.5239 4.6665 40.2272 4.78942 40.0084 5.00821C39.7896 5.22701 39.6667 5.52375 39.6667 5.83317V9.33317H36.1667C35.8572 9.33317 35.5605 9.45609 35.3417 9.67488C35.1229 9.89367 35 10.1904 35 10.4998C35 10.8093 35.1229 11.106 35.3417 11.3248C35.5605 11.5436 35.8572 11.6665 36.1667 11.6665H40.8333C41.1428 11.6665 41.4395 11.5436 41.6583 11.3248C41.8771 11.106 42 10.8093 42 10.4998V6.99984H44.3333C44.6428 6.99984 44.9395 6.87692 45.1583 6.65813C45.3771 6.43934 45.5 6.14259 45.5 5.83317C45.5 5.52375 45.3771 5.22701 45.1583 5.00821C44.9395 4.78942 44.6428 4.6665 44.3333 4.6665Z" fill="black"/>
<path d="M38.4997 14C38.1903 14 37.8935 14.1229 37.6747 14.3417C37.4559 14.5605 37.333 14.8572 37.333 15.1667V18.6667C37.333 18.9761 37.4559 19.2728 37.6747 19.4916C37.8935 19.7104 38.1903 19.8333 38.4997 19.8333C38.8091 19.8333 39.1058 19.7104 39.3246 19.4916C39.5434 19.2728 39.6663 18.9761 39.6663 18.6667V15.1667C39.6663 14.8572 39.5434 14.5605 39.3246 14.3417C39.1058 14.1229 38.8091 14 38.4997 14Z" fill="black"/>
<path d="M44.3333 10.5002V14.0002H43.1667C42.8572 14.0002 42.5605 14.1231 42.3417 14.3419C42.1229 14.5607 42 14.8574 42 15.1668C42 15.4762 42.1229 15.773 42.3417 15.9918C42.5605 16.2106 42.8572 16.3335 43.1667 16.3335H45.5C45.8094 16.3335 46.1062 16.2106 46.325 15.9918C46.5438 15.773 46.6667 15.4762 46.6667 15.1668V10.5002C46.6667 10.1907 46.5438 9.894 46.325 9.67521C46.1062 9.45641 45.8094 9.3335 45.5 9.3335C45.1906 9.3335 44.8938 9.45641 44.675 9.67521C44.4562 9.894 44.3333 10.1907 44.3333 10.5002Z" fill="black"/>
<path d="M31.5 14.0002C31.5 14.3096 31.6229 14.6063 31.8417 14.8251C32.0605 15.0439 32.3572 15.1668 32.6667 15.1668H33.8333C34.1428 15.1668 34.4395 15.0439 34.6583 14.8251C34.8771 14.6063 35 14.3096 35 14.0002C35 13.6907 34.8771 13.394 34.6583 13.1752C34.4395 12.9564 34.1428 12.8335 33.8333 12.8335H32.6667C32.3572 12.8335 32.0605 12.9564 31.8417 13.1752C31.6229 13.394 31.5 13.6907 31.5 14.0002Z" fill="black"/>
<path d="M61.8337 56C62.1431 56 62.4398 55.8771 62.6586 55.6583C62.8774 55.4395 63.0003 55.1428 63.0003 54.8333C63.0003 54.5239 62.8774 54.2272 62.6586 54.0084C62.4398 53.7896 62.1431 53.6667 61.8337 53.6667H57.167V51.3333H59.5003C59.8097 51.3333 60.1065 51.2104 60.3253 50.9916C60.5441 50.7728 60.667 50.4761 60.667 50.1667V43.1667C60.667 42.8572 60.5441 42.5605 60.3253 42.3417C60.1065 42.1229 59.8097 42 59.5003 42C59.1909 42 58.8942 42.1229 58.6754 42.3417C58.4566 42.5605 58.3337 42.8572 58.3337 43.1667V49H47.8337V39.6667C47.8337 39.3572 47.7107 39.0605 47.492 38.8417C47.2732 38.6229 46.9764 38.5 46.667 38.5H43.167V37.3333C43.167 37.0239 43.0441 36.7272 42.8253 36.5084C42.6065 36.2896 42.3097 36.1667 42.0003 36.1667H36.167V30.3333C36.167 30.0239 36.0441 29.7272 35.8253 29.5084C35.6065 29.2896 35.3097 29.1667 35.0003 29.1667C34.6909 29.1667 34.3942 29.2896 34.1754 29.5084C33.9566 29.7272 33.8337 30.0239 33.8337 30.3333V31.5H31.5003V25.6667C31.5003 25.3572 31.3774 25.0605 31.1586 24.8417C30.9398 24.6229 30.6431 24.5 30.3337 24.5C30.0242 24.5 29.7275 24.6229 29.5087 24.8417C29.2899 25.0605 29.167 25.3572 29.167 25.6667V32.6667C29.167 32.9761 29.2899 33.2728 29.5087 33.4916C29.7275 33.7104 30.0242 33.8333 30.3337 33.8333H33.8337V37.3333C33.8337 37.6428 33.9566 37.9395 34.1754 38.1583C34.3942 38.3771 34.6909 38.5 35.0003 38.5H40.8337V39.6667C40.8337 39.9761 40.9566 40.2728 41.1754 40.4916C41.3942 40.7104 41.6909 40.8333 42.0003 40.8333H45.5003V43.1667H43.167C42.8576 43.1667 42.5608 43.2896 42.342 43.5084C42.1232 43.7272 42.0003 44.0239 42.0003 44.3333C42.0003 44.6428 42.1232 44.9395 42.342 45.1583C42.5608 45.3771 42.8576 45.5 43.167 45.5H45.5003V63C45.5003 63.3094 45.6232 63.6062 45.842 63.825C46.0608 64.0438 46.3576 64.1667 46.667 64.1667C46.9764 64.1667 47.2732 64.0438 47.492 63.825C47.7107 63.6062 47.8337 63.3094 47.8337 63V60.6667H50.167V63C50.167 63.3094 50.2899 63.6062 50.5087 63.825C50.7275 64.0438 51.0242 64.1667 51.3337 64.1667C51.6431 64.1667 51.9398 64.0438 52.1586 63.825C52.3774 63.6062 52.5003 63.3094 52.5003 63V60.6667H54.8337V64.1667C54.8337 64.4761 54.9566 64.7728 55.1754 64.9916C55.3942 65.2104 55.6909 65.3333 56.0003 65.3333C56.3097 65.3333 56.6065 65.2104 56.8253 64.9916C57.0441 64.7728 57.167 64.4761 57.167 64.1667V56H61.8337ZM47.8337 51.3333H54.8337V58.3333H47.8337V51.3333Z" fill="black"/>
<path d="M29.1663 63.0003V59.5003C29.1663 59.1909 29.0434 58.8942 28.8246 58.6754C28.6058 58.4566 28.3091 58.3337 27.9997 58.3337H26.833V53.667H33.833C34.1424 53.667 34.4392 53.5441 34.658 53.3253C34.8768 53.1065 34.9997 52.8097 34.9997 52.5003V47.8337C34.9997 47.5242 34.8768 47.2275 34.658 47.0087C34.4392 46.7899 34.1424 46.667 33.833 46.667H32.6663V43.167C32.6663 42.8576 32.5434 42.5608 32.3246 42.342C32.1058 42.1232 31.8091 42.0003 31.4997 42.0003H29.1663V37.3337C29.1663 37.0242 29.0434 36.7275 28.8246 36.5087C28.6058 36.2899 28.3091 36.167 27.9997 36.167C27.6903 36.167 27.3935 36.2899 27.1747 36.5087C26.9559 36.7275 26.833 37.0242 26.833 37.3337V42.0003H24.4997C24.1903 42.0003 23.8935 42.1232 23.6747 42.342C23.4559 42.5608 23.333 42.8576 23.333 43.167V47.8337C23.333 48.1431 23.4559 48.4398 23.6747 48.6586C23.8935 48.8774 24.1903 49.0003 24.4997 49.0003C24.8091 49.0003 25.1058 48.8774 25.3246 48.6586C25.5434 48.4398 25.6663 48.1431 25.6663 47.8337V44.3337H30.333V46.667H29.1663C28.8569 46.667 28.5602 46.7899 28.3414 47.0087C28.1226 47.2275 27.9997 47.5242 27.9997 47.8337V51.3337H25.6663C25.3569 51.3337 25.0602 51.4566 24.8414 51.6754C24.6226 51.8942 24.4997 52.1909 24.4997 52.5003V58.3337C24.1903 58.3337 23.8935 58.4566 23.6747 58.6754C23.4559 58.8942 23.333 59.1909 23.333 59.5003C23.333 59.8097 23.4559 60.1065 23.6747 60.3253C23.8935 60.5441 24.1903 60.667 24.4997 60.667H26.833V63.0003H24.4997C24.1903 63.0003 23.8935 63.1232 23.6747 63.342C23.4559 63.5608 23.333 63.8576 23.333 64.167C23.333 64.4764 23.4559 64.7732 23.6747 64.992C23.8935 65.2107 24.1903 65.3337 24.4997 65.3337H29.1663C29.4758 65.3337 29.7725 65.2107 29.9913 64.992C30.2101 64.7732 30.333 64.4764 30.333 64.167C30.333 63.8576 30.2101 63.5608 29.9913 63.342C29.7725 63.1232 29.4758 63.0003 29.1663 63.0003ZM30.333 49.0003H32.6663V51.3337H30.333V49.0003Z" fill="black"/>
<path d="M42.0003 56H37.3337C37.0242 56 36.7275 56.1229 36.5087 56.3417C36.2899 56.5605 36.167 56.8572 36.167 57.1667V63H33.8337C33.5242 63 33.2275 63.1229 33.0087 63.3417C32.7899 63.5605 32.667 63.8572 32.667 64.1667C32.667 64.4761 32.7899 64.7728 33.0087 64.9916C33.2275 65.2104 33.5242 65.3333 33.8337 65.3333H39.667C39.9764 65.3333 40.2732 65.2104 40.492 64.9916C40.7107 64.7728 40.8337 64.4761 40.8337 64.1667C40.8337 63.8572 40.7107 63.5605 40.492 63.3417C40.2732 63.1229 39.9764 63 39.667 63H38.5003V58.3333H40.8337V59.5C40.8337 59.8094 40.9566 60.1062 41.1754 60.325C41.3942 60.5438 41.6909 60.6667 42.0003 60.6667C42.3097 60.6667 42.6065 60.5438 42.8253 60.325C43.0441 60.1062 43.167 59.8094 43.167 59.5V57.1667C43.167 56.8572 43.0441 56.5605 42.8253 56.3417C42.6065 56.1229 42.3097 56 42.0003 56Z" fill="black"/>
<path d="M33.8333 59.5V57.1667C33.8333 56.8572 33.7104 56.5605 33.4916 56.3417C33.2728 56.1229 32.9761 56 32.6667 56C32.3572 56 32.0605 56.1229 31.8417 56.3417C31.6229 56.5605 31.5 56.8572 31.5 57.1667V59.5C31.5 59.8094 31.6229 60.1062 31.8417 60.325C32.0605 60.5438 32.3572 60.6667 32.6667 60.6667C32.9761 60.6667 33.2728 60.5438 33.4916 60.325C33.7104 60.1062 33.8333 59.8094 33.8333 59.5Z" fill="black"/>
<path d="M41.9997 49H38.4997C38.1903 49 37.8935 49.1229 37.6747 49.3417C37.4559 49.5605 37.333 49.8572 37.333 50.1667C37.333 50.4761 37.4559 50.7728 37.6747 50.9916C37.8935 51.2104 38.1903 51.3333 38.4997 51.3333H41.9997C42.3091 51.3333 42.6058 51.2104 42.8246 50.9916C43.0434 50.7728 43.1663 50.4761 43.1663 50.1667C43.1663 49.8572 43.0434 49.5605 42.8246 49.3417C42.6058 49.1229 42.3091 49 41.9997 49Z" fill="black"/>
<path d="M38.4997 46.6663C38.8091 46.6663 39.1058 46.5434 39.3246 46.3246C39.5434 46.1058 39.6663 45.8091 39.6663 45.4997V41.9997C39.6663 41.6903 39.5434 41.3935 39.3246 41.1747C39.1058 40.9559 38.8091 40.833 38.4997 40.833H34.9997C34.6903 40.833 34.3935 40.9559 34.1747 41.1747C33.9559 41.3935 33.833 41.6903 33.833 41.9997C33.833 42.3091 33.9559 42.6058 34.1747 42.8246C34.3935 43.0434 34.6903 43.1663 34.9997 43.1663H37.333V45.4997C37.333 45.8091 37.4559 46.1058 37.6747 46.3246C37.8935 46.5434 38.1903 46.6663 38.4997 46.6663Z" fill="black"/>
<path d="M65.3333 38.5002C65.3333 38.1907 65.2104 37.894 64.9916 37.6752C64.7728 37.4564 64.4761 37.3335 64.1667 37.3335C63.8572 37.3335 63.5605 37.4564 63.3417 37.6752C63.1229 37.894 63 38.1907 63 38.5002V42.0002C63 42.3096 63.1229 42.6063 63.3417 42.8251C63.5605 43.0439 63.8572 43.1668 64.1667 43.1668C64.4761 43.1668 64.7728 43.0439 64.9916 42.8251C65.2104 42.6063 65.3333 42.3096 65.3333 42.0002V38.5002Z" fill="black"/>
<path d="M64.1667 45.5C63.8572 45.5 63.5605 45.6229 63.3417 45.8417C63.1229 46.0605 63 46.3572 63 46.6667V51.3333C63 51.6428 63.1229 51.9395 63.3417 52.1583C63.5605 52.3771 63.8572 52.5 64.1667 52.5C64.4761 52.5 64.7728 52.3771 64.9916 52.1583C65.2104 51.9395 65.3333 51.6428 65.3333 51.3333V46.6667C65.3333 46.3572 65.2104 46.0605 64.9916 45.8417C64.7728 45.6229 64.4761 45.5 64.1667 45.5Z" fill="black"/>
<path d="M51.3337 46.6663H54.8337C55.1431 46.6663 55.4398 46.5434 55.6586 46.3246C55.8774 46.1058 56.0003 45.8091 56.0003 45.4997C56.0003 45.1903 55.8774 44.8935 55.6586 44.6747C55.4398 44.4559 55.1431 44.333 54.8337 44.333H52.5003V41.9997C52.5003 41.6903 52.3774 41.3935 52.1586 41.1747C51.9398 40.9559 51.6431 40.833 51.3337 40.833C51.0242 40.833 50.7275 40.9559 50.5087 41.1747C50.2899 41.3935 50.167 41.6903 50.167 41.9997V45.4997C50.167 45.8091 50.2899 46.1058 50.5087 46.3246C50.7275 46.5434 51.0242 46.6663 51.3337 46.6663Z" fill="black"/>
<path d="M15.167 29.1663C15.167 28.8569 15.0441 28.5602 14.8253 28.3414C14.6065 28.1226 14.3097 27.9997 14.0003 27.9997H11.667V24.4997C11.667 24.1903 11.5441 23.8935 11.3253 23.6747C11.1065 23.4559 10.8097 23.333 10.5003 23.333H5.83366C5.52424 23.333 5.22749 23.4559 5.0087 23.6747C4.78991 23.8935 4.66699 24.1903 4.66699 24.4997C4.66699 24.8091 4.78991 25.1058 5.0087 25.3246C5.22749 25.5434 5.52424 25.6663 5.83366 25.6663H9.33366V29.1663C9.33366 29.4758 9.45658 29.7725 9.67537 29.9913C9.89416 30.2101 10.1909 30.333 10.5003 30.333H14.0003C14.3097 30.333 14.6065 30.2101 14.8253 29.9913C15.0441 29.7725 15.167 29.4758 15.167 29.1663Z" fill="black"/>
<path d="M17.4997 25.6667H23.333C23.6424 25.6667 23.9392 25.5438 24.158 25.325C24.3768 25.1062 24.4997 24.8094 24.4997 24.5V18.6667C24.4997 18.3572 24.3768 18.0605 24.158 17.8417C23.9392 17.6229 23.6424 17.5 23.333 17.5C23.0236 17.5 22.7268 17.6229 22.508 17.8417C22.2893 18.0605 22.1663 18.3572 22.1663 18.6667V23.3333H17.4997C17.1903 23.3333 16.8935 23.4562 16.6747 23.675C16.4559 23.8938 16.333 24.1906 16.333 24.5C16.333 24.8094 16.4559 25.1062 16.6747 25.325C16.8935 25.5438 17.1903 25.6667 17.4997 25.6667Z" fill="black"/>
<path d="M4.66699 31.4997V36.1663C4.66699 36.4758 4.78991 36.7725 5.0087 36.9913C5.22749 37.2101 5.52424 37.333 5.83366 37.333C6.14308 37.333 6.43982 37.2101 6.65862 36.9913C6.87741 36.7725 7.00033 36.4758 7.00033 36.1663V31.4997C7.00033 31.1903 6.87741 30.8935 6.65862 30.6747C6.43982 30.4559 6.14308 30.333 5.83366 30.333C5.52424 30.333 5.22749 30.4559 5.0087 30.6747C4.78991 30.8935 4.66699 31.1903 4.66699 31.4997Z" fill="black"/>
<path d="M10.4997 32.667C10.1903 32.667 9.89351 32.7899 9.67472 33.0087C9.45592 33.2275 9.33301 33.5242 9.33301 33.8337C9.33301 34.1431 9.45592 34.4398 9.67472 34.6586C9.89351 34.8774 10.1903 35.0003 10.4997 35.0003H12.833C13.1424 35.0003 13.4392 34.8774 13.658 34.6586C13.8768 34.4398 13.9997 34.1431 13.9997 33.8337C13.9997 33.5242 13.8768 33.2275 13.658 33.0087C13.4392 32.7899 13.1424 32.667 12.833 32.667H10.4997Z" fill="black"/>
<path d="M24.5003 37.3333V35H25.667C25.9764 35 26.2732 34.8771 26.492 34.6583C26.7107 34.4395 26.8337 34.1428 26.8337 33.8333C26.8337 33.5239 26.7107 33.2272 26.492 33.0084C26.2732 32.7896 25.9764 32.6667 25.667 32.6667H24.5003V29.1667C24.5003 28.8572 24.3774 28.5605 24.1586 28.3417C23.9398 28.1229 23.6431 28 23.3337 28H18.667C18.3576 28 18.0608 28.1229 17.842 28.3417C17.6232 28.5605 17.5003 28.8572 17.5003 29.1667C17.5003 29.4761 17.6232 29.7728 17.842 29.9916C18.0608 30.2104 18.3576 30.3333 18.667 30.3333H22.167V32.6667H17.5003C17.1909 32.6667 16.8942 32.7896 16.6754 33.0084C16.4566 33.2272 16.3337 33.5239 16.3337 33.8333V37.3333H15.167C14.8576 37.3333 14.5608 37.4562 14.342 37.675C14.1232 37.8938 14.0003 38.1906 14.0003 38.5V44.3333H11.667V40.8333C11.667 40.5239 11.5441 40.2272 11.3253 40.0084C11.1065 39.7896 10.8097 39.6667 10.5003 39.6667H5.83366C5.52424 39.6667 5.22749 39.7896 5.0087 40.0084C4.78991 40.2272 4.66699 40.5239 4.66699 40.8333C4.66699 41.1428 4.78991 41.4395 5.0087 41.6583C5.22749 41.8771 5.52424 42 5.83366 42H9.33366V44.3333H5.83366C5.52424 44.3333 5.22749 44.4562 5.0087 44.675C4.78991 44.8938 4.66699 45.1906 4.66699 45.5C4.66699 45.8094 4.78991 46.1062 5.0087 46.325C5.22749 46.5438 5.52424 46.6667 5.83366 46.6667H19.8337C20.1431 46.6667 20.4398 46.5438 20.6586 46.325C20.8774 46.1062 21.0003 45.8094 21.0003 45.5C21.0003 45.1906 20.8774 44.8938 20.6586 44.675C20.4398 44.4562 20.1431 44.3333 19.8337 44.3333H16.3337V39.6667H18.667V40.8333C18.667 41.1428 18.7899 41.4395 19.0087 41.6583C19.2275 41.8771 19.5242 42 19.8337 42C20.1431 42 20.4398 41.8771 20.6586 41.6583C20.8774 41.4395 21.0003 41.1428 21.0003 40.8333V38.5C21.0003 38.1906 20.8774 37.8938 20.6586 37.675C20.4398 37.4562 20.1431 37.3333 19.8337 37.3333H18.667V35H22.167V37.3333C22.167 37.6428 22.2899 37.9395 22.5087 38.1583C22.7275 38.3771 23.0242 38.5 23.3337 38.5C23.6431 38.5 23.9398 38.3771 24.1586 38.1583C24.3774 37.9395 24.5003 37.6428 24.5003 37.3333Z" fill="black"/>
<path d="M36.1667 24.4998H38.5C38.8094 24.4998 39.1062 24.3769 39.325 24.1581C39.5438 23.9393 39.6667 23.6426 39.6667 23.3332C39.6667 23.0238 39.5438 22.727 39.325 22.5082C39.1062 22.2894 38.8094 22.1665 38.5 22.1665H36.1667C35.8572 22.1665 35.5605 22.2894 35.3417 22.5082C35.1229 22.727 35 23.0238 35 23.3332C35 23.6426 35.1229 23.9393 35.3417 24.1581C35.5605 24.3769 35.8572 24.4998 36.1667 24.4998Z" fill="black"/>
<path d="M40.8337 29.1663H43.167C43.4764 29.1663 43.7732 29.0434 43.992 28.8246C44.2107 28.6058 44.3337 28.3091 44.3337 27.9997C44.3337 27.6903 44.2107 27.3935 43.992 27.1747C43.7732 26.9559 43.4764 26.833 43.167 26.833H40.8337C40.5242 26.833 40.2275 26.9559 40.0087 27.1747C39.7899 27.3935 39.667 27.6903 39.667 27.9997C39.667 28.3091 39.7899 28.6058 40.0087 28.8246C40.2275 29.0434 40.5242 29.1663 40.8337 29.1663Z" fill="black"/>
<path d="M49 25.6667V30.3333C49 30.6428 49.1229 30.9395 49.3417 31.1583C49.5605 31.3771 49.8572 31.5 50.1667 31.5H52.5C52.8094 31.5 53.1062 31.3771 53.325 31.1583C53.5438 30.9395 53.6667 30.6428 53.6667 30.3333C53.6667 30.0239 53.5438 29.7272 53.325 29.5084C53.1062 29.2896 52.8094 29.1667 52.5 29.1667H51.3333V25.6667H56C56.3094 25.6667 56.6062 25.5438 56.825 25.325C57.0438 25.1062 57.1667 24.8094 57.1667 24.5C57.1667 24.1906 57.0438 23.8938 56.825 23.675C56.6062 23.4562 56.3094 23.3333 56 23.3333H47.8333V22.1667C47.8333 21.8572 47.7104 21.5605 47.4916 21.3417C47.2728 21.1229 46.9761 21 46.6667 21H44.3333V18.6667C44.3333 18.3572 44.2104 18.0605 43.9916 17.8417C43.7728 17.6229 43.4761 17.5 43.1667 17.5C42.8572 17.5 42.5605 17.6229 42.3417 17.8417C42.1229 18.0605 42 18.3572 42 18.6667V22.1667C42 22.4761 42.1229 22.7728 42.3417 22.9916C42.5605 23.2104 42.8572 23.3333 43.1667 23.3333H45.5V24.5C45.5 24.8094 45.6229 25.1062 45.8417 25.325C46.0605 25.5438 46.3572 25.6667 46.6667 25.6667H49Z" fill="black"/>
<path d="M39.6667 33.8333H45.5C45.8094 33.8333 46.1062 33.7104 46.325 33.4916C46.5438 33.2728 46.6667 32.9761 46.6667 32.6667C46.6667 32.3572 46.5438 32.0605 46.325 31.8417C46.1062 31.6229 45.8094 31.5 45.5 31.5H39.6667C39.3572 31.5 39.0605 31.6229 38.8417 31.8417C38.6229 32.0605 38.5 32.3572 38.5 32.6667C38.5 32.9761 38.6229 33.2728 38.8417 33.4916C39.0605 33.7104 39.3572 33.8333 39.6667 33.8333Z" fill="black"/>
<path d="M65.3337 24.4997C65.3337 24.1903 65.2107 23.8935 64.992 23.6747C64.7732 23.4559 64.4764 23.333 64.167 23.333H60.667C60.3576 23.333 60.0608 23.4559 59.842 23.6747C59.6232 23.8935 59.5003 24.1903 59.5003 24.4997C59.5003 24.8091 59.6232 25.1058 59.842 25.3246C60.0608 25.5434 60.3576 25.6663 60.667 25.6663H63.0003V27.9997H59.5003C59.1909 27.9997 58.8942 28.1226 58.6754 28.3414C58.4566 28.5602 58.3337 28.8569 58.3337 29.1663C58.3337 29.4758 58.4566 29.7725 58.6754 29.9913C58.8942 30.2101 59.1909 30.333 59.5003 30.333H63.0003V32.6663H58.3337C58.0242 32.6663 57.7275 32.7893 57.5087 33.008C57.2899 33.2268 57.167 33.5236 57.167 33.833C57.167 34.1424 57.2899 34.4392 57.5087 34.658C57.7275 34.8768 58.0242 34.9997 58.3337 34.9997H64.167C64.4764 34.9997 64.7732 34.8768 64.992 34.658C65.2107 34.4392 65.3337 34.1424 65.3337 33.833V24.4997Z" fill="black"/>
<path d="M48.9997 36.1663H50.1663V37.333C50.1663 37.6424 50.2893 37.9392 50.508 38.158C50.7268 38.3768 51.0236 38.4997 51.333 38.4997C51.6424 38.4997 51.9392 38.3768 52.158 38.158C52.3768 37.9392 52.4997 37.6424 52.4997 37.333V34.9997C52.4997 34.6903 52.3768 34.3935 52.158 34.1747C51.9392 33.9559 51.6424 33.833 51.333 33.833H48.9997C48.6903 33.833 48.3935 33.9559 48.1747 34.1747C47.9559 34.3935 47.833 34.6903 47.833 34.9997C47.833 35.3091 47.9559 35.6058 48.1747 35.8246C48.3935 36.0434 48.6903 36.1663 48.9997 36.1663Z" fill="black"/>
<path d="M57.1663 40.833V39.6663H59.4997C59.8091 39.6663 60.1058 39.5434 60.3246 39.3246C60.5434 39.1058 60.6663 38.8091 60.6663 38.4997C60.6663 38.1903 60.5434 37.8935 60.3246 37.6747C60.1058 37.4559 59.8091 37.333 59.4997 37.333H55.9997C55.6903 37.333 55.3935 37.4559 55.1747 37.6747C54.9559 37.8935 54.833 38.1903 54.833 38.4997V40.833C54.833 41.1424 54.9559 41.4392 55.1747 41.658C55.3935 41.8768 55.6903 41.9997 55.9997 41.9997C56.3091 41.9997 56.6058 41.8768 56.8246 41.658C57.0434 41.4392 57.1663 41.1424 57.1663 40.833Z" fill="black"/>
<path d="M61.8333 64.1668V60.6668H64.1667C64.4761 60.6668 64.7728 60.5439 64.9916 60.3251C65.2104 60.1063 65.3333 59.8096 65.3333 59.5002C65.3333 59.1907 65.2104 58.894 64.9916 58.6752C64.7728 58.4564 64.4761 58.3335 64.1667 58.3335H60.6667C60.3572 58.3335 60.0605 58.4564 59.8417 58.6752C59.6229 58.894 59.5 59.1907 59.5 59.5002V64.1668C59.5 64.4762 59.6229 64.773 59.8417 64.9918C60.0605 65.2106 60.3572 65.3335 60.6667 65.3335C60.9761 65.3335 61.2728 65.2106 61.4916 64.9918C61.7104 64.773 61.8333 64.4762 61.8333 64.1668Z" fill="black"/>
<path d="M51.3337 56.0003C51.978 56.0003 52.5003 55.478 52.5003 54.8337C52.5003 54.1893 51.978 53.667 51.3337 53.667C50.6893 53.667 50.167 54.1893 50.167 54.8337C50.167 55.478 50.6893 56.0003 51.3337 56.0003Z" fill="black"/>
</svg>
