<svg width="94" height="35" viewBox="0 0 94 35" fill="none" xmlns="http://www.w3.org/2000/svg">
<rect width="93.8967" height="34.172" rx="5" fill="#090909"/>
<path d="M21.5226 17.5544C21.5237 17.4723 21.5271 17.3904 21.533 17.3089C21.6902 15.1287 22.3089 12.2038 20.1241 12.1352C18.6875 11.9838 17.2947 12.9982 16.5627 12.9982C15.8164 12.9982 14.6892 12.1502 13.4755 12.1753C11.8934 12.2266 10.4185 13.1296 9.64875 14.5182C7.99415 17.394 9.22833 21.6206 10.8133 23.9452C11.6063 25.0835 12.5331 26.355 13.7457 26.3099C14.9324 26.2605 15.3756 25.5503 16.808 25.5503C18.2272 25.5503 18.643 26.3099 19.8802 26.2813C21.1536 26.2605 21.9559 25.1379 22.721 23.9888C23.691 22.6081 22.657 20.8388 21.9276 19.3172C21.6674 18.7743 21.5233 18.1729 21.5226 17.5544Z" fill="white"/>
<path d="M19.1856 10.6064C19.1982 10.5912 19.2107 10.5758 19.2232 10.5604C20.3109 9.21108 18.5359 7.72914 17.3949 9.03379C16.2335 10.3607 18.0376 12.0024 19.1578 10.6406C19.1672 10.6292 19.1764 10.6178 19.1856 10.6064Z" fill="white"/>
<path d="M64.5266 12.953C64.1517 12.953 63.8478 13.2568 63.8478 13.6317V14.1563C63.8478 14.4579 63.6033 14.7025 63.3017 14.7025C63 14.7025 62.7555 14.947 62.7555 15.2487V15.3036C62.7555 15.6053 63 15.8498 63.3017 15.8498C63.6033 15.8498 63.8478 16.0943 63.8478 16.396V19.7482C63.8478 21.0793 64.4477 21.6118 65.9568 21.6118C66.0423 21.6118 66.1265 21.6085 66.2087 21.6028C66.4916 21.583 66.6955 21.3349 66.6955 21.0513V20.9265C66.6955 20.6486 66.4556 20.4391 66.1778 20.4391C65.5022 20.4391 65.2054 20.1222 65.2054 19.3996V16.5949C65.2054 16.1834 65.539 15.8498 65.9505 15.8498H66.1219C66.4387 15.8498 66.6955 15.593 66.6955 15.2761C66.6955 14.9593 66.4387 14.7025 66.1219 14.7025H65.9505C65.539 14.7025 65.2054 14.3689 65.2054 13.9574V13.6317C65.2054 13.2569 64.9015 12.953 64.5266 12.953Z" fill="white"/>
<path d="M70.5399 21.7069C72.5478 21.7069 73.7791 20.3567 73.7791 18.1191C73.7791 15.8942 72.5415 14.5377 70.5399 14.5377C68.532 14.5377 67.2944 15.8942 67.2944 18.1191C67.2944 20.3567 68.5256 21.7069 70.5399 21.7069ZM70.5399 20.4962C69.3591 20.4962 68.6961 19.6278 68.6961 18.1191C68.6961 16.6231 69.3591 15.7484 70.5399 15.7484C71.7143 15.7484 72.3836 16.6231 72.3836 18.1191C72.3836 19.6214 71.7143 20.4962 70.5399 20.4962Z" fill="white"/>
<path d="M74.8325 20.895C74.8325 21.2699 75.1364 21.5738 75.5113 21.5738C75.8862 21.5738 76.1901 21.2699 76.1901 20.895V17.4979C76.1901 16.5281 76.9162 15.8752 77.9454 15.8752C78.321 15.8752 78.7031 15.5694 78.7031 15.1938V15.0937C78.7031 14.8109 78.5096 14.5692 78.227 14.5591C78.1823 14.5575 78.1384 14.5567 78.097 14.5567C77.2187 14.5567 76.4677 15.0311 76.2533 15.6879C76.2454 15.7123 76.2229 15.7294 76.1972 15.7294C76.1654 15.7294 76.1396 15.7036 76.1396 15.6717V15.2001C76.1396 14.9078 75.9026 14.6708 75.6103 14.6708H75.486C75.1251 14.6708 74.8325 14.9634 74.8325 15.3243V20.895Z" fill="white"/>
<path d="M82.0739 15.6977C82.4648 15.6977 82.803 15.8043 83.0722 15.9985C83.8273 16.5434 82.9966 17.4852 82.0654 17.4852C81.1075 17.4852 80.2939 16.5013 81.0947 15.9756C81.3679 15.7962 81.6999 15.6977 82.0739 15.6977ZM84.1932 19.7102C83.9287 19.7102 83.6996 19.8759 83.5155 20.0658C83.2125 20.3784 82.7416 20.5469 82.1244 20.5469C81.0384 20.5469 80.3375 19.7799 80.2933 18.5692C80.2933 18.5272 80.3273 18.4931 80.3694 18.4931H84.6735C84.9361 18.4931 85.1489 18.2803 85.1489 18.0177C85.1489 15.8498 83.9934 14.5377 82.0802 14.5377C80.1418 14.5377 78.9105 15.9385 78.9105 18.1445C78.9105 20.3504 80.1165 21.7069 82.0865 21.7069C83.2856 21.7069 84.2092 21.2645 84.7173 20.5062C84.9643 20.1376 84.6369 19.7102 84.1932 19.7102Z" fill="white"/>
<path d="M55.7438 19.0246C55.311 19.0246 54.9567 19.3971 55.0987 19.8061C55.5291 21.0456 56.7999 21.8037 58.5512 21.8037C60.7894 21.8037 62.1899 20.6671 62.1899 18.8538C62.1899 17.4281 61.3915 16.6397 59.4544 16.1864L58.4138 15.9301C57.1834 15.641 56.686 15.2534 56.686 14.5767C56.686 13.7226 57.4583 13.1641 58.6167 13.1641C59.4385 13.1641 60.0702 13.4688 60.3942 13.9876C60.589 14.2995 60.8837 14.5833 61.2515 14.5833C61.6797 14.5833 62.0307 14.2161 61.8859 13.8131C61.4631 12.6372 60.2278 11.8633 58.6363 11.8633C56.5748 11.8633 55.2004 12.9868 55.2004 14.6753C55.2004 16.0681 55.9792 16.8959 57.6873 17.2967L58.9046 17.5923C60.1546 17.888 60.7043 18.3216 60.7043 19.0443C60.7043 19.8853 59.8405 20.4963 58.6625 20.4963C57.714 20.4963 56.9833 20.174 56.6254 19.6323C56.4187 19.3194 56.1188 19.0246 55.7438 19.0246Z" fill="white"/>
<path d="M40.8824 14.5567C39.9612 14.5567 39.1627 15.0125 38.741 15.7783C38.7297 15.7988 38.7083 15.8118 38.6849 15.8118C38.6501 15.8118 38.6219 15.7835 38.6219 15.7487V15.2413C38.6219 14.9262 38.3664 14.6708 38.0514 14.6708H37.9683C37.6074 14.6708 37.3148 14.9634 37.3148 15.3243V23.1897C37.3148 23.5645 37.6187 23.8684 37.9936 23.8684C38.3685 23.8684 38.6724 23.5645 38.6724 23.1897V20.5941C38.6724 20.5575 38.702 20.5279 38.7386 20.5279C38.7638 20.5279 38.7867 20.5423 38.7983 20.5646C39.166 21.2713 39.9328 21.6879 40.895 21.6879C42.6314 21.6879 43.7364 20.3123 43.7364 18.1191C43.7364 15.9259 42.6314 14.5567 40.8824 14.5567ZM40.4972 20.4645C39.3606 20.4645 38.6471 19.5644 38.6471 18.1254C38.6471 16.6802 39.3606 15.7801 40.5035 15.7801C41.6527 15.7801 42.3409 16.6612 42.3409 18.1191C42.3409 19.5834 41.6527 20.4645 40.4972 20.4645Z" fill="white"/>
<path d="M48.4867 14.5567C47.5655 14.5567 46.767 15.0125 46.3453 15.7783C46.334 15.7988 46.3126 15.8118 46.2893 15.8118C46.2544 15.8118 46.2262 15.7835 46.2262 15.7487V15.2413C46.2262 14.9262 45.9708 14.6708 45.6557 14.6708H45.5727C45.2117 14.6708 44.9191 14.9634 44.9191 15.3243V23.1897C44.9191 23.5645 45.223 23.8684 45.5979 23.8684C45.9728 23.8684 46.2767 23.5645 46.2767 23.1897V20.5941C46.2767 20.5575 46.3063 20.5279 46.3429 20.5279C46.3681 20.5279 46.391 20.5423 46.4027 20.5646C46.7703 21.2713 47.5372 21.6879 48.4993 21.6879C50.2357 21.6879 51.3407 20.3123 51.3407 18.1191C51.3407 15.9259 50.2357 14.5567 48.4867 14.5567ZM48.1015 20.4645C46.9649 20.4645 46.2514 19.5644 46.2514 18.1254C46.2514 16.6802 46.9649 15.7801 48.1078 15.7801C49.257 15.7801 49.9452 16.6612 49.9452 18.1191C49.9452 19.5834 49.257 20.4645 48.1015 20.4645Z" fill="white"/>
<path d="M34.7101 21.0814C34.8112 21.376 35.0883 21.5738 35.3997 21.5738C35.9046 21.5738 36.2566 21.073 36.0858 20.5979L33.2939 12.8353C33.1338 12.3901 32.7116 12.0932 32.2384 12.0932C31.7653 12.0932 31.3431 12.3901 31.1829 12.8353L28.3796 20.63C28.2143 21.0895 28.5548 21.5738 29.0432 21.5738C29.3438 21.5738 29.6113 21.3832 29.7096 21.0991L29.9806 20.3156C30.2411 19.5626 30.9503 19.0575 31.7471 19.0575H32.685C33.4808 19.0575 34.1888 19.5629 34.4472 20.3156L34.7101 21.0814ZM32.1452 13.8672C32.1559 13.8357 32.1855 13.8146 32.2188 13.8146C32.2521 13.8146 32.2817 13.8358 32.2924 13.8673L33.1818 16.4731C33.4076 17.1348 32.9158 17.8223 32.2166 17.8223C31.5169 17.8223 31.025 17.1336 31.252 16.4717L32.1452 13.8672Z" fill="white"/>
</svg>
