<svg width="70" height="23" viewBox="0 0 70 23" fill="none" xmlns="http://www.w3.org/2000/svg">
<g clip-path="url(#clip0_263_36177)">
<path d="M0.59722 5.72791C1.80857 2.55106 4.96595 0.214218 8.3674 0.0265516C10.7502 -0.158619 13.2477 0.625986 14.9432 2.34143C14.7266 3.11356 13.8616 3.56476 13.3351 4.15171C12.0289 2.91392 10.1991 2.27306 8.40633 2.4707C6.04803 2.6439 3.92081 4.30045 3.09228 6.50303C2.09106 9.05899 2.87766 12.2164 5.05829 13.9173C7.53837 15.9492 11.6341 15.7521 13.7099 13.2326C14.3508 12.4749 14.6088 11.4932 14.7356 10.5279C12.8305 10.4889 10.9249 10.5399 9.02224 10.4964C9.02723 9.68987 9.02972 8.8833 9.03421 8.07723C11.7169 8.05777 14.4017 8.11367 17.0844 8.0408C17.4692 9.51717 17.2671 11.0814 16.8264 12.5213C16.0637 14.9091 13.9734 16.7583 11.5732 17.4041C9.49739 18.0156 7.21944 17.794 5.24795 16.9195C3.04786 15.8938 1.25206 13.9762 0.467451 11.6688C-0.182893 9.75625 -0.170914 7.60707 0.596721 5.72891L0.59722 5.72791Z" fill="#4385F5"/>
<path d="M43.6424 9.57748C44.5852 7.55059 46.7978 6.0837 49.0707 6.32477C50.043 6.38566 50.8615 6.95115 51.6581 7.45526C51.6581 7.25062 51.6556 6.83885 51.6556 6.63422C52.4497 6.62922 53.2443 6.62673 54.0409 6.62224C54.0848 10.143 54.0529 13.6637 54.0604 17.1845C54.0579 19.0242 53.3416 20.9852 51.7435 22.0184C50.1987 22.9637 48.1888 23.1024 46.5098 22.4421C45.1602 21.916 44.1904 20.7586 43.5251 19.5088C44.2318 19.1679 44.96 18.8705 45.6957 18.5929C46.1978 19.3236 46.7384 20.1257 47.6228 20.4202C48.8287 20.7222 50.3759 20.554 51.0896 19.404C51.706 18.5585 51.6571 17.4744 51.6571 16.4827C50.9115 17.1066 50.0465 17.6352 49.0573 17.7205C46.5283 17.9691 44.0846 16.1268 43.3534 13.7441C42.9611 12.3795 43.0345 10.8692 43.6409 9.57748H43.6424ZM47.7017 8.76842C45.5675 9.64536 44.9191 12.7349 46.5103 14.4014C47.514 15.6417 49.5873 15.8074 50.7473 14.6989C52.014 13.493 52.1677 11.3758 51.2394 9.92586C50.5326 8.74895 48.9659 8.26182 47.7017 8.76842Z" fill="#4385F5"/>
<path d="M55.7833 0.694498C56.6119 0.694498 57.4399 0.694498 58.2709 0.687012C58.2659 6.23714 58.2634 11.7873 58.2734 17.3354C57.4424 17.3354 56.6143 17.3329 55.7883 17.3304C55.7983 11.7853 55.8078 6.23964 55.7833 0.694498Z" fill="#0EA345"/>
<path d="M35.1249 6.41281C37.0011 6.04247 39.0939 6.55905 40.429 7.96705C42.3441 9.78482 42.6121 12.9886 41.1817 15.1767C39.9708 17.0284 37.6295 18.0297 35.4533 17.6888C33.7624 17.3429 32.1303 16.3486 31.3162 14.7869C30.008 12.4067 30.6169 9.07807 32.8315 7.44348C33.5113 6.93938 34.3079 6.61246 35.1244 6.41281H35.1249ZM33.1514 12.2993C33.2438 13.9464 34.6742 15.591 36.4186 15.4058C37.8561 15.5351 39.033 14.3387 39.4497 13.062C39.6204 12.0608 39.5376 11.0151 39.1353 10.0798C38.6137 9.58767 38.1341 8.97625 37.4223 8.76164C36.6842 8.63237 35.9095 8.62538 35.1783 8.79807C33.8138 9.33661 33.0416 10.8814 33.1514 12.2993Z" fill="#FEBA02"/>
<path d="M61.024 7.92083C62.5174 6.34214 65.0444 5.82805 67.0104 6.78036C68.5356 7.50906 69.5174 9.03635 70 10.613C67.4735 11.6217 64.9835 12.7253 62.447 13.712C62.8662 14.7936 63.9992 15.5273 65.1636 15.432C66.3211 15.5243 67.3028 14.7861 67.9632 13.9042C68.5896 14.3304 69.3128 14.6568 69.8174 15.2393C68.1364 18.0972 63.7557 18.5504 61.3724 16.3189C58.9652 14.2551 58.8848 10.1983 61.024 7.92033V7.92083ZM62.0132 11.8119C63.7237 11.1052 65.4486 10.4279 67.1252 9.64327C66.6255 9.0633 65.9827 8.54672 65.1786 8.53224C63.4098 8.40297 61.8505 10.06 62.0137 11.8119H62.0132Z" fill="#E53F34"/>
<path d="M22.3498 6.50275C23.7727 6.12043 25.332 6.29561 26.6381 6.97041C28.1634 7.78397 29.3109 9.33371 29.53 11.0611C29.808 12.6838 29.3763 14.4406 28.3117 15.7074C26.8792 17.4348 24.3622 18.178 22.223 17.4932C20.9073 17.1423 19.7499 16.2629 19.0262 15.1129C18.0809 13.6585 17.9541 11.7679 18.4537 10.1328C18.9992 8.34197 20.5515 6.96542 22.3498 6.50225V6.50275ZM23.061 8.67838C21.5138 9.08266 20.4956 10.7272 20.6852 12.2915C20.7217 13.9849 22.225 15.5856 23.9744 15.4249C25.8336 15.4908 27.2585 13.5707 27.0734 11.8068C27.1198 9.80138 25.012 8.07196 23.0605 8.67838H23.061Z" fill="#E53F34"/>
</g>
<defs>
<clipPath id="clip0_263_36177">
<rect width="70" height="22.8504" fill="white"/>
</clipPath>
</defs>
</svg>
