<svg width="26" height="26" viewBox="0 0 26 26" fill="none" xmlns="http://www.w3.org/2000/svg">
<g clip-path="url(#clip0_263_36130)">
<path d="M19.5168 12.7922C18.8872 12.752 18.4318 13.2476 18.4318 13.971C18.4318 14.2657 18.4987 14.547 18.6863 14.8015C19.0613 15.2971 19.8249 15.3105 20.2133 14.8015C20.5616 14.3594 20.5616 13.5959 20.2133 13.1539C20.0392 12.9128 19.7981 12.7922 19.5168 12.7788V12.7922Z" fill="#828282"/>
<path d="M11.8812 12.7923C11.2382 12.7521 10.7828 13.2477 10.7962 14.0782C10.7962 14.2792 10.8632 14.5471 11.0373 14.7882C11.4124 15.2972 12.2027 15.2972 12.5777 14.7882C12.9126 14.3461 12.8992 13.6094 12.5777 13.1674C12.4036 12.9263 12.1759 12.8057 11.8812 12.7923Z" fill="#828282"/>
<path d="M12.9933 0C5.82689 0 0 5.82689 0 12.9933C0 20.1597 5.82689 26 12.9933 26C20.1597 26 25.9866 20.1731 25.9866 12.9933C25.9866 5.8135 20.1731 0 12.9933 0ZM8.63988 16.3957C7.68882 16.3957 6.73776 16.3957 5.78671 16.3957C5.51881 16.3957 5.23751 16.3957 4.9696 16.3957C4.63472 16.3823 4.29985 16.3153 4.12571 15.9536C3.96497 15.6054 4.07213 15.2839 4.29985 15.0026C5.21072 13.8506 6.12159 12.6986 7.03246 11.5332C7.08604 11.4663 7.13962 11.3993 7.1932 11.3323C7.13962 11.2385 7.04585 11.2787 6.97888 11.2787C6.33591 11.2787 5.70634 11.2787 5.06337 11.2787C4.91602 11.2787 4.76868 11.2787 4.62133 11.2251C4.32664 11.1448 4.1525 10.9171 4.1391 10.6224C4.1391 10.3411 4.31324 10.0999 4.60793 10.0196C4.74189 9.97939 4.90263 9.966 5.04997 9.966C6.0948 9.966 7.15301 9.966 8.19784 9.966C8.38537 9.966 8.5729 9.966 8.74704 10.033C9.14889 10.1669 9.32303 10.542 9.16229 10.9304C9.01494 11.2653 8.80062 11.56 8.5729 11.8413C7.80938 12.8192 7.03246 13.797 6.25554 14.7749C6.20196 14.8552 6.13498 14.9222 6.04122 15.0562C6.9253 15.0562 7.7558 15.0562 8.59969 15.0562C9.06852 15.0562 9.32303 15.2571 9.36321 15.6321C9.41679 16.101 9.14889 16.4091 8.63988 16.4091V16.3957ZM13.8238 16.4225C13.5157 16.5296 13.2076 16.4493 13.0067 16.1947C12.9129 16.0742 12.8594 16.0474 12.7254 16.1546C12.1896 16.5832 11.5868 16.6636 10.9304 16.4493C9.88563 16.1144 9.45698 15.2973 9.33642 14.2926C9.21587 13.221 9.57754 12.2968 10.5286 11.7342C11.3323 11.2653 12.136 11.3055 12.8727 11.9485C13.0201 11.7743 13.154 11.6002 13.3952 11.5466C13.864 11.4529 14.2926 11.7476 14.306 12.2164C14.3194 13.3952 14.306 14.5739 14.306 15.7393C14.306 16.0608 14.1051 16.3019 13.8104 16.4091L13.8238 16.4225ZM16.4359 15.6991C16.4359 16.2215 15.967 16.5698 15.4714 16.4493C15.1767 16.3689 14.949 16.0608 14.949 15.6857C14.949 14.1319 14.949 12.5647 14.949 11.0108C14.949 10.7429 14.949 10.4616 14.949 10.1937C14.949 9.73828 15.2437 9.44359 15.6723 9.44359C16.1144 9.44359 16.4225 9.73828 16.4225 10.2071C16.4225 11.1314 16.4225 12.0556 16.4225 12.9665C16.4225 13.8774 16.4225 14.7883 16.4225 15.6991H16.4359ZM19.6775 16.5698C18.1504 16.7172 16.9315 15.6054 16.9583 14.1453C16.9181 12.6316 17.9093 11.5064 19.3158 11.4663C20.8161 11.4261 21.9145 12.4307 21.9547 13.8908C21.9948 15.3776 21.084 16.4359 19.6775 16.5698Z" fill="#828282"/>
</g>
<defs>
<clipPath id="clip0_263_36130">
<rect width="26" height="26" fill="white"/>
</clipPath>
</defs>
</svg>
