<svg width="26" height="26" viewBox="0 0 26 26" fill="none" xmlns="http://www.w3.org/2000/svg">
<path d="M13 0C5.8299 0 0 5.81649 0 13C0 20.1835 5.8299 26 13 26C20.1701 26 26 20.1701 26 13C26 5.8299 20.1835 0 13 0ZM8.4567 8.01443H17.5567C18.2938 8.01443 18.9103 8.55051 19.0175 9.27423L13.0134 13.1608L7.00928 9.27423C7.1165 8.55051 7.73299 8.01443 8.4701 8.01443H8.4567ZM19.0309 16.5247C19.0309 17.3423 18.3608 18.0124 17.5433 18.0124H8.4433C7.62577 18.0124 6.95567 17.3423 6.95567 16.5247V10.5608L12.7722 14.3268C12.9062 14.4072 13.0804 14.4072 13.2144 14.3268L19.0309 10.5608V16.5247Z" fill="#828282"/>
</svg>
