<svg width="300" height="77" viewBox="0 0 300 77" fill="none" xmlns="http://www.w3.org/2000/svg">
<g clip-path="url(#clip0_263_36039)">
<path d="M90.2799 50.2334V25.4443H95.6264V45.8921H106.074V50.2334H90.2725H90.2799Z" fill="#1868B3"/>
<path d="M187.627 50.2334V25.4443H192.802L201.589 39.8233V25.4443H206.764V50.2334H201.589L192.802 35.7948V50.2334H187.627Z" fill="#1868B3"/>
<path d="M124.005 50.2334V25.4443H129.18L137.967 39.8233V25.4443H143.142V50.2334H137.967L129.18 35.7948V50.2334H124.005Z" fill="#1868B3"/>
<path d="M221.09 50.2334L212.758 25.4443H218.104L223.451 41.67L228.797 25.4443H234.144L225.774 50.2334H221.09Z" fill="#1868B3"/>
<path d="M288.094 50.2334V29.7856H281.496V25.4443H300V29.7856H293.44V50.2334H288.094Z" fill="#1868B3"/>
<path d="M154.877 41.7296V35.4448V25.4443H149.598V50.2334H154.877V41.7296Z" fill="#1868B3"/>
<path d="M160.984 37.8351L169.867 25.6603L169.994 25.4443H169.562H166.241H165.802H164.662H164.223L164.096 25.6603L155.213 37.8351L164.096 50.0174L164.223 50.2334H164.662H165.802H166.241H169.562H169.994L169.867 50.0174L160.984 37.8351Z" fill="#1868B3"/>
<path d="M245.127 29.7856H255.187H255.507V25.4443H239.848V29.7856H245.127Z" fill="#F7941D"/>
<path d="M112.053 25.4443V27.9538V34.1789V34.6704V39.7637V42.2657V42.7572V45.1177V45.6092V49.7419V50.2334H117.399V49.7419V42.1466V41.6551V39.7637V39.2946V38.8032V34.6704V34.1789V27.9538V25.4443H112.053Z" fill="#1868B3"/>
<path d="M245.127 45.8919V40.0092H255.507V35.668H255.187H245.127H239.848V50.2331H255.649V45.8919H245.127Z" fill="#1868B3"/>
<path d="M265.307 33.1365V31.1855C265.307 30.4111 265.933 29.7856 266.707 29.7856H276.626V25.4443H266.603C263.49 25.4443 260.966 27.9687 260.966 31.0813V34.03C260.966 37.3362 263.647 40.0095 266.946 40.0095H270.989C271.704 40.0095 272.285 40.5903 272.285 41.3051V42.5412V44.4922C272.285 45.2666 271.659 45.8921 270.885 45.8921H260.966V50.2334H270.989C274.102 50.2334 276.626 47.709 276.626 44.5964V41.6477C276.626 38.3415 273.945 35.6682 270.646 35.6682H266.603C265.888 35.6682 265.307 35.0874 265.307 34.3726V33.1365Z" fill="#1868B3"/>
<path d="M176.129 25.7422V26.3081V30.5749V31.1408V38.2372V38.8031V41.1339V41.6923V43.0699V43.6284V49.6674V50.2333H181.475V49.6674V39.6744V39.1159V37.7383V37.1798V34.8417V34.2832V31.1408V30.5749V26.3081V25.7422H176.129Z" fill="#1868B3"/>
<path d="M25.5337 25.3994H0V76.1987H25.5337V25.3994Z" fill="#1868B3"/>
<path d="M50.7992 50.6577H0V76.1914H50.7992V50.6577Z" fill="#1868B3"/>
<path d="M76.3549 0H50.8213V50.7992H76.3549V0Z" fill="#F7941D"/>
<path d="M76.3627 0H25.5635V25.5337H76.3627V0Z" fill="#F7941D"/>
<path d="M99.3202 69.1325C99.2606 68.6782 99.2159 68.3729 99.1862 68.2091C99.0447 67.256 98.8883 66.1539 98.717 64.9029C98.3968 62.5722 98.1734 60.6808 98.0394 59.2883C98.0096 58.9533 97.883 58.6852 97.6596 58.4916C97.4437 58.298 97.1682 58.2012 96.848 58.2012C96.0587 58.2012 95.4555 58.6331 95.0534 59.4819C94.696 60.2415 94.3832 60.9414 94.1077 61.5818C93.8322 62.2222 93.4599 63.1083 92.9908 64.2402L92.2908 65.9305L91.8068 65.9156C91.5387 65.9156 91.3228 66.005 91.1515 66.1688C90.9802 66.3401 90.8983 66.5784 90.8983 66.8762C90.8983 67.1443 91.0026 67.3677 91.1962 67.5166C91.293 67.5911 91.4121 67.6506 91.5387 67.6879L91.0324 68.8346C90.9356 69.0506 90.7866 69.3186 90.593 69.6537C90.4813 69.8473 90.4069 69.9888 90.3622 70.0782C90.3026 70.1973 90.2803 70.3239 90.2803 70.443C90.2803 70.7483 90.3845 71.0015 90.5781 71.1951C90.7717 71.3813 91.0249 71.4781 91.3228 71.4781C92.0227 71.4781 92.3057 71.0983 92.4174 70.7856C92.6259 70.175 93.0057 69.1474 93.5641 67.7251H93.996C94.8002 67.6879 95.4332 67.6804 95.9023 67.6804C96.2448 67.6804 96.6172 67.6804 97.0044 67.6655H97.1161C97.2426 69.0952 97.3097 70.0111 97.3097 70.376C97.3097 70.7409 97.4139 71.009 97.6224 71.2026C97.8235 71.3887 98.099 71.4855 98.4341 71.4855C98.7394 71.4855 98.9925 71.4036 99.1862 71.2472C99.3872 71.076 99.4915 70.8451 99.4915 70.5473C99.4915 70.4728 99.4766 70.3239 99.4542 70.1079C99.4319 69.8994 99.3872 69.5718 99.3202 69.125V69.1325ZM96.431 60.6957C96.6544 62.9147 96.8331 64.6721 96.9597 65.9901C96.2821 65.9975 95.6863 66.005 95.1725 66.005C94.9566 66.005 94.6439 66.005 94.2566 65.9975C94.4279 65.5433 94.5694 65.1784 94.6811 64.9104C95.046 63.9796 95.4257 63.0562 95.8129 62.1478C96.0438 61.6042 96.2523 61.1202 96.4384 60.6957H96.431Z" fill="#1868B3"/>
<path d="M103.564 58C103.259 58 103.013 58.0745 102.82 58.2159C102.619 58.3649 102.492 58.5808 102.455 58.834C102.455 58.8712 102.44 58.9904 102.433 59.1989C102.418 59.6308 102.373 60.2637 102.306 61.0754C102.231 61.8945 102.083 63.2572 101.844 65.1411C101.71 66.2208 101.561 67.3005 101.39 68.3356C101.316 68.8196 101.226 69.2962 101.114 69.7802C101.077 69.944 101.047 70.0929 101.025 70.227C100.995 70.3759 100.98 70.5025 100.98 70.6067C100.98 70.8525 101.092 71.0759 101.301 71.2471C101.502 71.4109 101.74 71.5003 102.023 71.5003C102.328 71.5003 102.589 71.4258 102.79 71.2769C102.998 71.1205 103.125 70.912 103.162 70.644C103.17 70.5546 103.185 70.3536 103.207 70.0483C103.244 69.11 103.393 67.442 103.661 65.089C103.758 64.2252 103.87 63.3688 103.989 62.5274C104.108 61.686 104.205 60.986 104.294 60.435C104.339 60.1669 104.398 59.8765 104.488 59.5488C104.585 59.1244 104.599 58.9978 104.599 58.9382C104.599 58.6776 104.495 58.4468 104.294 58.2681C104.101 58.0968 103.862 58.0149 103.572 58.0149L103.564 58Z" fill="#1868B3"/>
<path d="M115.285 61.8796C114.965 61.8796 114.704 61.9988 114.51 62.2222C114.324 62.4381 114.227 62.6987 114.227 62.9891C114.227 63.153 114.235 63.3391 114.25 63.5178C114.25 63.5849 114.25 63.6891 114.265 63.838C114.265 63.9795 114.272 64.0987 114.272 64.2178C114.272 65.2901 114.145 66.2879 113.9 67.174C113.654 68.0601 113.349 68.7601 112.999 69.259C112.679 69.7058 112.388 69.9441 112.142 69.9441C111.956 69.9441 111.837 69.6164 111.785 69.4228C111.658 68.9835 111.599 68.3952 111.599 67.658C111.599 67.2857 111.621 66.9059 111.658 66.5411C111.696 66.1688 111.748 65.7518 111.815 65.2901C111.822 65.2007 111.845 65.0369 111.874 64.8135C111.904 64.5752 111.919 64.3965 111.919 64.2699C111.919 64.0167 111.845 63.8008 111.703 63.6221C111.547 63.4285 111.316 63.3242 111.011 63.3242C110.646 63.3242 110.37 63.4434 110.191 63.6742C110.02 63.8902 109.931 64.1582 109.931 64.471C109.931 65.0444 109.819 65.789 109.603 66.6826C109.387 67.5836 109.112 68.3729 108.784 69.0356C108.389 69.8398 108.121 69.9292 108.025 69.9292C107.809 69.9292 107.66 69.6015 107.57 69.326C107.414 68.842 107.339 68.1793 107.339 67.3527C107.339 66.8687 107.377 66.3251 107.444 65.7294C107.518 65.1337 107.608 64.5603 107.704 64.0168C107.734 63.838 107.771 63.6444 107.831 63.4434C107.92 63.0338 107.935 62.8998 107.935 62.8253C107.935 62.5573 107.853 62.3264 107.697 62.1477C107.533 61.9615 107.302 61.8647 107.019 61.8647C106.61 61.8647 106.304 62.0137 106.111 62.3041C105.94 62.5573 105.828 62.8626 105.776 63.2274C105.619 64.4189 105.545 65.5656 105.545 66.6453C105.545 68.0676 105.716 69.2367 106.051 70.1153C106.416 71.0685 107.004 71.5525 107.816 71.5525C108.375 71.5525 108.903 71.2546 109.395 70.6664C109.7 70.3015 109.99 69.8398 110.244 69.3037C110.318 69.7803 110.43 70.2047 110.586 70.5696C110.869 71.21 111.346 71.5525 111.979 71.5525C112.857 71.5525 113.639 71.0759 114.309 70.1302C114.95 69.2292 115.456 68.0974 115.813 66.7794C116.163 65.4688 116.342 64.2029 116.342 63.0264C116.342 62.7136 116.26 62.4456 116.104 62.2296C115.933 61.9913 115.657 61.8722 115.292 61.8722L115.285 61.8796Z" fill="#1868B3"/>
<path d="M124.421 61.9318C124.101 61.9318 123.833 62.0286 123.632 62.2073C123.535 62.2966 123.453 62.4083 123.394 62.5424C123.215 62.3711 123.022 62.2296 122.813 62.1179C122.478 61.9541 122.091 61.8647 121.659 61.8647C120.832 61.8647 120.058 62.1477 119.365 62.7062C118.68 63.2498 118.129 63.9944 117.727 64.9029C117.325 65.8113 117.124 66.7943 117.124 67.8219C117.124 68.5963 117.236 69.2739 117.444 69.8175C117.668 70.3834 117.988 70.8227 118.412 71.1132C118.837 71.411 119.351 71.5599 119.939 71.5599C120.49 71.5599 121.041 71.344 121.584 70.927C121.897 70.6813 122.188 70.3834 122.448 70.0334C122.448 70.0707 122.448 70.1079 122.448 70.1451C122.448 70.5249 122.53 70.8376 122.686 71.0759C122.806 71.2621 123.051 71.4855 123.513 71.4855C123.796 71.4855 124.027 71.3961 124.206 71.2174C124.384 71.0387 124.466 70.8079 124.466 70.5323C124.466 70.3983 124.451 70.2121 124.421 69.959C124.392 69.7207 124.377 69.5271 124.377 69.3707C124.377 69.0207 124.459 68.2537 124.623 67.0921C124.786 65.9156 124.935 65.0071 125.062 64.3742C125.077 64.2848 125.129 64.0689 125.211 63.7189C125.218 63.6817 125.248 63.5625 125.3 63.3615C125.352 63.1455 125.375 62.9743 125.375 62.8551C125.375 62.5945 125.278 62.3711 125.092 62.1924C124.906 62.0137 124.682 61.9243 124.421 61.9243V61.9318ZM120.058 69.8473C119.678 69.8473 119.41 69.7132 119.224 69.4303C119.023 69.125 118.919 68.6112 118.919 67.9187C118.919 67.1666 119.053 66.4443 119.328 65.7592C119.596 65.0816 119.954 64.5231 120.393 64.1136C120.817 63.7114 121.242 63.5178 121.696 63.5178C121.897 63.5178 122.076 63.5551 122.225 63.637C122.389 63.7263 122.56 63.8529 122.739 64.0242C122.865 64.1359 122.999 64.2104 123.148 64.2327C123.096 64.7763 123.022 65.4092 122.925 66.1241L122.88 66.4517C122.686 67.04 122.411 67.6134 122.076 68.142C121.741 68.6633 121.376 69.0952 120.996 69.4079C120.639 69.7058 120.326 69.8547 120.043 69.8547L120.058 69.8473Z" fill="#1868B3"/>
<path d="M134.34 62.1625C134.139 62.0061 133.901 61.9316 133.61 61.9316C133.357 61.9316 133.126 62.0136 132.918 62.1699C132.635 62.3859 132.575 62.639 132.575 62.8103C132.575 63.1528 132.546 63.7262 132.478 64.5006C132.411 65.29 132.359 65.9899 132.359 65.9899C132.143 66.742 131.868 67.4196 131.525 68.0153C131.19 68.6036 130.81 69.0653 130.416 69.4004C130.036 69.7131 129.656 69.8769 129.284 69.8769C129.008 69.8769 128.815 69.7876 128.673 69.6014C128.524 69.4004 128.443 69.0727 128.443 68.6483C128.443 68.3058 128.517 67.643 128.658 66.6675C128.8 65.6921 128.934 64.9325 129.046 64.4187C129.314 63.1975 129.344 62.9146 129.344 62.8029C129.344 62.5646 129.247 62.3486 129.061 62.1848C128.882 62.021 128.644 61.9391 128.353 61.9391C128.063 61.9391 127.802 62.021 127.594 62.1848C127.37 62.3561 127.251 62.6018 127.251 62.8922C127.251 63.1156 127.229 63.4656 127.184 63.9422C127.139 64.4262 127.08 64.9549 127.005 65.5282C126.894 66.3697 126.804 67.025 126.752 67.509C126.693 68.0079 126.67 68.3653 126.67 68.6185C126.67 69.1993 126.767 69.7206 126.968 70.1599C127.169 70.6141 127.467 70.9716 127.854 71.2098C128.241 71.4556 128.696 71.5747 129.21 71.5747C129.872 71.5747 130.513 71.3066 131.108 70.7705C131.458 70.4578 131.771 70.0705 132.061 69.6089C132.054 69.7206 132.039 69.8248 132.032 69.9142C131.95 70.7779 131.808 71.5673 131.592 72.2747C131.384 72.9672 131.101 73.5182 130.751 73.9278C130.423 74.3075 130.051 74.4937 129.627 74.4937C128.964 74.4937 128.48 74.1288 128.13 73.3842C127.839 72.7587 127.393 72.6247 127.08 72.6247C126.812 72.6247 126.581 72.7289 126.402 72.9225C126.231 73.1161 126.142 73.3544 126.142 73.6448C126.142 74.0693 126.305 74.4788 126.633 74.8735C126.946 75.2532 127.355 75.5585 127.862 75.7968C128.361 76.0277 128.897 76.1468 129.455 76.1468C130.297 76.1468 131.019 75.916 131.615 75.4543C132.196 75.0001 132.672 74.315 133.015 73.4214C133.357 72.5427 133.603 71.4183 133.752 70.078C133.983 67.993 134.184 66.325 134.34 65.0889L134.4 64.59C134.415 64.4634 134.437 64.3145 134.474 64.1507C134.511 63.972 134.534 63.8528 134.541 63.8007C134.638 63.3316 134.69 62.9965 134.69 62.788C134.69 62.6242 134.63 62.3784 134.362 62.1699L134.34 62.1625Z" fill="#1868B3"/>
<path d="M138.778 63.6889C138.994 63.5995 139.255 63.5548 139.545 63.5548C139.836 63.5548 140.089 63.5995 140.275 63.6963C140.476 63.8006 140.67 63.942 140.856 64.1133C141.199 64.441 141.511 64.6048 141.817 64.6048C142.085 64.6048 142.316 64.5154 142.494 64.3367C142.673 64.158 142.762 63.9272 142.762 63.6591C142.762 63.3314 142.606 63.0187 142.293 62.7357C142.01 62.4751 141.623 62.2666 141.161 62.1102C140.7 61.9539 140.216 61.8794 139.709 61.8794C139.091 61.8794 138.518 62.006 138.019 62.2443C137.513 62.49 137.103 62.8325 136.805 63.2644C136.507 63.6963 136.358 64.1952 136.358 64.7388C136.358 65.409 136.612 65.96 137.103 66.3621C137.565 66.7419 138.175 67.0695 138.927 67.345C139.337 67.494 139.679 67.6355 139.933 67.7695C140.171 67.8886 140.357 68.0301 140.491 68.1865C140.61 68.3205 140.67 68.4843 140.67 68.6779C140.67 68.9088 140.603 69.1024 140.469 69.2737C140.327 69.4524 140.134 69.5938 139.895 69.6907C139.65 69.7949 139.374 69.847 139.084 69.847C138.793 69.847 138.555 69.8321 138.376 69.7949C138.213 69.7651 138.056 69.6981 137.907 69.5939C137.751 69.4896 137.595 69.3183 137.438 69.1024C137.267 68.8716 137.096 68.6779 136.924 68.529C136.723 68.3578 136.5 68.2758 136.262 68.2758C136.008 68.2758 135.792 68.3652 135.629 68.5439C135.472 68.7152 135.39 68.9386 135.39 69.2066C135.39 69.6013 135.562 69.996 135.912 70.3683C136.239 70.7257 136.679 71.0161 137.215 71.2395C137.751 71.4629 138.332 71.5746 138.935 71.5746C139.598 71.5746 140.216 71.4406 140.759 71.1725C141.31 70.9044 141.75 70.5321 142.07 70.0704C142.39 69.6013 142.554 69.0875 142.554 68.5365C142.554 68.0227 142.42 67.5759 142.152 67.2185C141.899 66.8759 141.571 66.5855 141.184 66.3621C140.819 66.1462 140.335 65.9228 139.754 65.6919C139.225 65.4834 138.808 65.2675 138.51 65.0664C138.265 64.9026 138.146 64.7165 138.146 64.508C138.146 64.3367 138.198 64.1878 138.302 64.0537C138.414 63.9123 138.577 63.7931 138.793 63.7038L138.778 63.6889Z" fill="#1868B3"/>
<path d="M155.555 62.3714C155.138 62.0438 154.632 61.8725 154.043 61.8725C153.425 61.8725 152.83 62.0959 152.271 62.5427C151.958 62.7958 151.661 63.1086 151.385 63.4884C151.556 62.1182 151.698 61.0906 151.817 60.4279C151.847 60.2417 151.899 59.9737 151.988 59.6311C152.1 59.1546 152.115 58.9982 152.115 58.9163C152.115 58.6556 152.011 58.4248 151.817 58.2535C151.631 58.0897 151.407 58.0078 151.154 58.0078C150.804 58.0078 150.529 58.0972 150.328 58.2684C150.127 58.4471 150.015 58.6854 150.015 58.9609C150.015 59.4524 149.94 60.3981 149.799 61.7757C149.657 63.1682 149.486 64.5979 149.3 66.0574C149.114 67.5094 148.965 68.5221 148.868 69.0731C148.838 69.237 148.786 69.4901 148.712 69.8178C148.585 70.3465 148.57 70.5103 148.57 70.5922C148.57 70.8677 148.682 71.106 148.883 71.2698C149.077 71.4262 149.293 71.5007 149.523 71.5007C149.873 71.5007 150.149 71.4113 150.343 71.24C150.454 71.1432 150.536 71.0241 150.588 70.8975C150.752 71.0464 150.931 71.1805 151.132 71.2847C151.482 71.4709 151.877 71.5602 152.301 71.5602C153.254 71.5602 154.088 71.2549 154.766 70.6443C155.428 70.0486 155.935 69.2816 156.27 68.3434C156.598 67.42 156.769 66.452 156.769 65.4542C156.769 64.8138 156.665 64.2181 156.463 63.6894C156.255 63.1458 155.95 62.7065 155.54 62.3788L155.555 62.3714ZM150.938 67.3158C151.095 66.7573 151.34 66.1765 151.675 65.5957C152.003 65.0149 152.375 64.5234 152.792 64.1436C153.18 63.7862 153.559 63.6 153.924 63.6C154.252 63.6 154.505 63.7341 154.699 64.017C154.907 64.3223 155.011 64.7468 155.011 65.2829C155.011 66.1467 154.877 66.9509 154.624 67.6807C154.371 68.403 154.021 68.9838 153.589 69.4008C153.172 69.8029 152.74 70.0039 152.256 70.0039C152.055 70.0039 151.862 69.9444 151.668 69.8327C151.467 69.7135 151.281 69.5274 151.102 69.2742C150.998 69.1327 150.879 69.0657 150.774 69.0285C150.819 68.5519 150.871 67.9785 150.938 67.3307V67.3158Z" fill="#1868B3"/>
<path d="M165.69 62.1625C165.496 62.0061 165.25 61.9316 164.96 61.9316C164.707 61.9316 164.476 62.0136 164.268 62.1699C163.985 62.3859 163.925 62.639 163.925 62.8103C163.925 63.1528 163.895 63.7188 163.828 64.5006C163.761 65.29 163.709 65.9974 163.709 65.9974C163.493 66.7495 163.218 67.4271 162.875 68.0228C162.54 68.611 162.16 69.0727 161.766 69.4078C161.386 69.7206 161.006 69.8844 160.634 69.8844C160.358 69.8844 160.165 69.795 160.023 69.6089C159.874 69.4078 159.792 69.0802 159.792 68.6557C159.792 68.3132 159.867 67.6505 160.008 66.675C160.15 65.6921 160.284 64.94 160.395 64.4262C160.663 63.2124 160.693 62.922 160.693 62.8103C160.693 62.572 160.596 62.3561 160.41 62.1923C160.224 62.0284 159.993 61.9465 159.703 61.9465C159.413 61.9465 159.152 62.0284 158.943 62.1923C158.72 62.3635 158.608 62.6093 158.608 62.8997C158.608 63.1231 158.586 63.473 158.541 63.9496C158.497 64.4336 158.437 64.9623 158.363 65.5357C158.251 66.3771 158.162 67.0324 158.109 67.5164C158.057 68.0004 158.027 68.3728 158.027 68.6259C158.027 69.2068 158.124 69.728 158.325 70.1673C158.526 70.6216 158.824 70.9716 159.211 71.2173C159.599 71.463 160.053 71.5822 160.567 71.5822C161.229 71.5822 161.87 71.3141 162.466 70.778C162.815 70.4652 163.128 70.078 163.419 69.6163C163.411 69.728 163.396 69.8323 163.389 69.9216C163.314 70.7854 163.165 71.5747 162.95 72.2821C162.741 72.9746 162.458 73.5257 162.108 73.9352C161.78 74.315 161.416 74.5011 160.984 74.5011C160.321 74.5011 159.837 74.1363 159.487 73.3916C159.197 72.7661 158.757 72.6321 158.437 72.6321C158.169 72.6321 157.938 72.7364 157.759 72.93C157.588 73.1236 157.499 73.3693 157.499 73.6523C157.499 74.0693 157.663 74.4862 157.99 74.8809C158.303 75.2607 158.713 75.5734 159.219 75.8043C159.718 76.0351 160.254 76.1542 160.812 76.1542C161.654 76.1542 162.376 75.9234 162.972 75.4617C163.553 75.0075 164.029 74.3224 164.372 73.4289C164.707 72.5502 164.96 71.4258 165.109 70.0854C165.34 68.0004 165.541 66.3325 165.697 65.0964L165.757 64.6049C165.772 64.4783 165.794 64.3294 165.831 64.1358C165.861 63.9719 165.883 63.8603 165.891 63.8156C165.988 63.339 166.04 63.0114 166.04 62.8029C166.04 62.639 165.988 62.3933 165.712 62.1848L165.69 62.1625Z" fill="#1868B3"/>
<path d="M179.808 62.1625C179.615 62.0061 179.369 61.9316 179.078 61.9316C178.825 61.9316 178.594 62.0136 178.386 62.1699C178.103 62.3859 178.043 62.639 178.043 62.8103C178.043 63.1528 178.014 63.7188 177.947 64.5006C177.88 65.29 177.827 65.9974 177.827 65.9974C177.612 66.7495 177.336 67.4271 176.993 68.0228C176.658 68.611 176.279 69.0727 175.884 69.4078C175.504 69.7206 175.124 69.8844 174.752 69.8844C174.477 69.8844 174.283 69.795 174.142 69.6089C173.993 69.4078 173.911 69.0802 173.911 68.6557C173.911 68.3132 173.985 67.6505 174.127 66.675C174.268 65.6921 174.402 64.94 174.514 64.4262C174.782 63.2124 174.812 62.922 174.812 62.8103C174.812 62.572 174.715 62.3561 174.529 62.1923C174.343 62.0284 174.112 61.9465 173.821 61.9465C173.531 61.9465 173.27 62.0284 173.062 62.1923C172.838 62.3635 172.727 62.6093 172.727 62.8997C172.727 63.1231 172.704 63.473 172.66 63.9496C172.615 64.4336 172.555 64.9623 172.481 65.5357C172.369 66.3771 172.28 67.0324 172.228 67.5164C172.176 68.0004 172.146 68.3728 172.146 68.6259C172.146 69.2068 172.243 69.728 172.444 70.1673C172.645 70.6216 172.943 70.9716 173.33 71.2173C173.717 71.463 174.171 71.5822 174.685 71.5822C175.348 71.5822 175.988 71.3141 176.584 70.778C176.934 70.4652 177.247 70.078 177.537 69.6163C177.53 69.728 177.515 69.8323 177.507 69.9216C177.433 70.7854 177.284 71.5747 177.068 72.2821C176.859 72.9746 176.576 73.5257 176.227 73.9352C175.899 74.315 175.534 74.5011 175.102 74.5011C174.439 74.5011 173.955 74.1363 173.605 73.3916C173.315 72.7661 172.876 72.6321 172.555 72.6321C172.287 72.6321 172.057 72.7364 171.878 72.93C171.707 73.1236 171.617 73.3618 171.617 73.6523C171.617 74.0767 171.781 74.4862 172.109 74.8809C172.421 75.2607 172.831 75.5734 173.337 75.8043C173.836 76.0351 174.372 76.1542 174.931 76.1542C175.772 76.1542 176.495 75.9234 177.09 75.4617C177.671 75.0075 178.148 74.3224 178.49 73.4289C178.825 72.5502 179.078 71.4258 179.227 70.0854C179.458 68.0004 179.659 66.3325 179.816 65.0964L179.875 64.6049C179.89 64.4783 179.912 64.3294 179.95 64.1358C179.979 63.9719 180.002 63.8603 180.009 63.8156C180.106 63.339 180.158 63.0114 180.158 62.8029C180.158 62.639 180.106 62.3933 179.831 62.1848L179.808 62.1625Z" fill="#1868B3"/>
<path d="M186.942 62.4751C186.458 62.0804 185.899 61.8794 185.289 61.8794C184.462 61.8794 183.71 62.207 183.047 62.8474C182.407 63.4655 181.901 64.2622 181.543 65.193C181.186 66.1238 181.007 67.0621 181.007 67.9705C181.007 68.6779 181.141 69.3109 181.409 69.8545C181.677 70.4055 182.064 70.8299 182.556 71.1278C183.04 71.4257 183.606 71.5746 184.231 71.5746C185.028 71.5746 185.758 71.3661 186.406 70.9491C187.046 70.5321 187.56 69.9438 187.925 69.2066C188.29 68.4694 188.468 67.6131 188.468 66.6674C188.468 65.7217 188.334 64.8654 188.066 64.1505C187.798 63.4282 187.418 62.8698 186.942 62.4826V62.4751ZM183.248 69.5641C183.04 69.229 182.936 68.7226 182.936 68.045C182.936 67.3674 183.032 66.6749 183.219 65.9526C183.405 65.2452 183.68 64.642 184.038 64.1729C184.373 63.7335 184.738 63.5176 185.17 63.5176C185.445 63.5176 185.683 63.6144 185.892 63.8155C186.115 64.0314 186.287 64.3516 186.413 64.776C186.54 65.2154 186.607 65.7441 186.607 66.3547C186.607 67.0919 186.495 67.7471 186.264 68.3131C186.041 68.8641 185.736 69.2885 185.363 69.5864C184.991 69.8768 184.589 70.0183 184.142 70.0183C183.718 70.0183 183.427 69.8694 183.241 69.5715L183.248 69.5641Z" fill="#1868B3"/>
<path d="M197.054 61.8721C196.704 61.8721 196.436 61.9614 196.249 62.1401C196.063 62.3189 195.966 62.5422 195.959 62.8252C195.959 63.2794 195.855 64.2698 195.654 65.7367C195.43 66.5186 195.132 67.2335 194.76 67.8739C194.395 68.5068 193.986 69.0132 193.561 69.3706C193.152 69.7131 192.764 69.8844 192.4 69.8844C192.102 69.8844 191.908 69.8099 191.796 69.6461C191.67 69.4599 191.603 69.1993 191.603 68.8568C191.603 68.5962 191.677 67.9483 191.819 66.9505C191.968 65.9304 192.102 65.0368 192.236 64.2624C192.258 64.1283 192.28 63.9868 192.325 63.8305C192.362 63.6667 192.392 63.5475 192.407 63.4879C192.496 63.1454 192.541 62.922 192.541 62.7805C192.541 62.4976 192.444 62.2742 192.243 62.1104C192.057 61.954 191.849 61.8721 191.618 61.8721C191.268 61.8721 190.992 61.9614 190.784 62.1327C190.568 62.3114 190.456 62.5422 190.449 62.8178C190.441 63.2645 190.337 64.3443 190.136 66.0272C190.069 66.6229 190.009 67.1888 189.95 67.7324C189.89 68.2909 189.86 68.6632 189.86 68.8717C189.86 69.3482 189.942 69.795 190.114 70.2046C190.285 70.6216 190.56 70.9716 190.933 71.2247C191.305 71.4854 191.774 71.6119 192.318 71.6119C192.921 71.6119 193.517 71.3737 194.09 70.912C194.455 70.6141 194.797 70.2493 195.11 69.8174C195.11 70.4578 195.132 70.5695 195.132 70.6141C195.177 70.8748 195.274 71.0833 195.423 71.2396C195.579 71.4034 195.78 71.4854 196.004 71.4854C196.354 71.4854 196.622 71.396 196.808 71.2247C197.001 71.046 197.091 70.8152 197.091 70.5397C197.091 70.4354 197.076 70.2865 197.054 70.0854C197.009 69.7429 196.987 69.4748 196.987 69.2961C196.987 68.9536 197.068 68.2089 197.232 67.0771C197.396 65.9304 197.545 64.9921 197.679 64.2624C197.716 64.0539 197.768 63.8081 197.843 63.5326C197.969 63.0039 197.984 62.8327 197.984 62.7507C197.984 62.4678 197.88 62.2444 197.679 62.088C197.493 61.9465 197.284 61.8721 197.054 61.8721Z" fill="#1868B3"/>
<path d="M204.523 61.8721C203.897 61.8721 203.294 62.1104 202.728 62.5795C202.393 62.855 202.08 63.2124 201.79 63.6443C201.79 63.5624 201.79 63.4954 201.79 63.4358C201.79 62.9816 201.723 62.6465 201.589 62.3933C201.477 62.1923 201.246 61.954 200.747 61.954C200.45 61.954 200.219 62.0433 200.047 62.2295C199.884 62.4082 199.802 62.6539 199.802 62.9518C199.802 63.056 199.809 63.2273 199.832 63.473C199.861 63.7411 199.876 63.9571 199.876 64.1283C199.876 64.4783 199.794 65.2378 199.623 66.3846C199.452 67.5611 199.303 68.4398 199.176 69.0578C199.124 69.3185 199.072 69.5419 199.02 69.7355C198.983 69.8993 198.945 70.0557 198.916 70.2046C198.886 70.3684 198.864 70.495 198.864 70.5843C198.864 70.845 198.968 71.0684 199.154 71.2396C199.34 71.4109 199.578 71.4928 199.861 71.4928C200.174 71.4928 200.435 71.4109 200.643 71.2396C200.859 71.0609 200.971 70.8226 200.971 70.5397C200.971 70.1078 201.083 69.0057 201.291 67.3228C201.492 66.6527 201.768 66.0272 202.118 65.4538C202.46 64.8953 202.818 64.4783 203.182 64.2251C203.331 64.1209 203.48 64.039 203.614 64.0017C203.756 63.9571 203.89 63.9273 204.024 63.9124C204.165 63.8975 204.366 63.8975 204.612 63.8975C204.895 63.8975 205.126 63.7932 205.305 63.5922C205.476 63.3986 205.558 63.1603 205.558 62.8773C205.558 62.5795 205.454 62.3337 205.26 62.1476C205.066 61.9614 204.813 61.8721 204.508 61.8721H204.523Z" fill="#1868B3"/>
<path d="M213.958 63.6894C214.174 63.6 214.434 63.5553 214.717 63.5553C215 63.5553 215.261 63.6 215.447 63.6968C215.648 63.8011 215.842 63.9425 216.028 64.1138C216.37 64.4414 216.683 64.6053 216.988 64.6053C217.264 64.6053 217.487 64.5159 217.666 64.3372C217.845 64.1585 217.934 63.9276 217.934 63.6596C217.934 63.3319 217.778 63.0192 217.465 62.7362C217.175 62.4756 216.795 62.2671 216.333 62.1107C215.871 61.9544 215.387 61.8799 214.881 61.8799C214.263 61.8799 213.69 62.0065 213.191 62.2448C212.677 62.4905 212.275 62.833 211.977 63.2649C211.679 63.6968 211.53 64.1957 211.53 64.7393C211.53 65.4095 211.783 65.9605 212.275 66.3626C212.736 66.7424 213.347 67.07 214.099 67.3455C214.509 67.4945 214.851 67.6359 215.104 67.77C215.343 67.8891 215.529 68.0306 215.663 68.187C215.782 68.321 215.842 68.4848 215.842 68.6784C215.842 68.9093 215.775 69.1029 215.641 69.2741C215.499 69.4529 215.305 69.5943 215.067 69.6911C214.814 69.7954 214.546 69.8475 214.248 69.8475C213.95 69.8475 213.719 69.8326 213.541 69.7954C213.377 69.7656 213.22 69.6986 213.072 69.5943C212.915 69.4901 212.759 69.3263 212.602 69.1029C212.431 68.872 212.26 68.6784 212.089 68.5295C211.888 68.3582 211.664 68.2763 211.426 68.2763C211.173 68.2763 210.957 68.3657 210.793 68.5444C210.637 68.7157 210.555 68.9391 210.555 69.2071C210.555 69.6018 210.726 69.9964 211.076 70.3688C211.404 70.7262 211.843 71.0166 212.379 71.24C212.915 71.4634 213.496 71.5751 214.099 71.5751C214.762 71.5751 215.38 71.441 215.924 71.173C216.475 70.9049 216.914 70.5326 217.234 70.0709C217.554 69.6018 217.718 69.088 217.718 68.5295C217.718 68.0157 217.584 67.5689 217.316 67.2115C217.063 66.869 216.735 66.5786 216.348 66.3552C215.976 66.1392 215.499 65.9158 214.918 65.685C214.39 65.4765 213.973 65.2605 213.675 65.0595C213.429 64.8957 213.31 64.7095 213.31 64.501C213.31 64.3297 213.362 64.1808 213.466 64.0393C213.578 63.8979 213.742 63.7787 213.958 63.6894Z" fill="#1868B3"/>
<path d="M222.662 58.7893C222.469 58.6627 222.223 58.5957 221.925 58.5957C221.583 58.5957 221.3 58.7074 221.091 58.9308C220.89 59.1393 220.764 59.4446 220.704 59.8392C220.689 59.9584 220.682 60.0701 220.682 60.1669C220.682 60.4796 220.764 60.7179 220.935 60.8817C221.099 61.0381 221.344 61.12 221.65 61.12C221.955 61.12 222.186 61.0679 222.357 60.9711C222.551 60.8594 222.67 60.6807 222.707 60.435L222.729 60.1743C222.737 60.0626 222.744 59.9807 222.759 59.936C222.767 59.8839 222.789 59.8393 222.819 59.7946L222.871 59.6829C222.908 59.6084 222.938 59.5191 222.953 59.3999C222.99 59.1542 222.886 58.9308 222.662 58.7819V58.7893Z" fill="#1868B3"/>
<path d="M221.411 61.8721C221.105 61.8721 220.845 61.9614 220.651 62.1476C220.45 62.3337 220.346 62.5795 220.346 62.8699C220.346 63.7783 220.264 64.8059 220.1 65.9676L219.951 67.025C219.869 67.6505 219.787 68.2089 219.713 68.7004C219.661 69.0355 219.616 69.2887 219.579 69.4674C219.571 69.5195 219.534 69.6833 219.49 69.9737C219.437 70.2716 219.415 70.4727 219.415 70.5918C219.415 70.8822 219.527 71.1205 219.728 71.2769C219.914 71.4258 220.145 71.5002 220.413 71.5002C220.726 71.5002 220.994 71.4109 221.187 71.2322C221.388 71.0535 221.5 70.8152 221.5 70.5546C221.5 70.1376 221.545 69.5121 221.627 68.6706C221.709 67.8292 221.805 66.9952 221.91 66.1761C221.954 65.8112 222.014 65.4314 222.096 65.007C222.17 64.6272 222.207 64.389 222.222 64.3145C222.282 64.0017 222.334 63.7113 222.379 63.4358C222.423 63.1454 222.446 62.9295 222.446 62.788C222.446 62.505 222.334 62.2667 222.133 62.1029C221.939 61.954 221.701 61.8721 221.411 61.8721Z" fill="#1868B3"/>
<path d="M231.449 58C231.166 58 230.928 58.0745 230.741 58.2159C230.548 58.3649 230.429 58.5734 230.399 58.834C230.391 58.9085 230.384 59.035 230.384 59.1989C230.369 59.601 230.347 60.0626 230.31 60.5839C230.28 61.0158 230.213 61.6636 230.123 62.5349C229.922 62.3412 229.691 62.1923 229.446 62.0881C229.126 61.9466 228.746 61.8796 228.321 61.8796C227.435 61.8796 226.638 62.1774 225.946 62.7657C225.268 63.3465 224.732 64.106 224.352 65.0368C223.98 65.9602 223.794 66.9357 223.794 67.9409C223.794 68.6558 223.906 69.2887 224.114 69.8323C224.338 70.3833 224.658 70.8227 225.067 71.1205C225.484 71.4258 225.983 71.5822 226.542 71.5822C227.145 71.5822 227.741 71.3439 228.299 70.8823C228.627 70.6142 228.924 70.2865 229.2 69.9068C229.2 70.3684 229.26 70.7259 229.364 70.9865C229.461 71.2248 229.677 71.5077 230.168 71.5077C230.466 71.5077 230.712 71.4109 230.898 71.2322C231.091 71.0461 231.188 70.8003 231.188 70.5099C231.188 70.4131 231.173 70.2716 231.151 70.1004C231.114 69.8621 231.091 69.6313 231.091 69.4153C231.091 69.1994 231.129 68.7526 231.203 68.0675C231.278 67.375 231.397 66.3846 231.561 65.0964C231.814 63.004 232.015 61.4849 232.186 60.4424C232.223 60.2265 232.275 59.951 232.365 59.6159C232.476 59.1616 232.491 59.0053 232.491 58.9234C232.491 58.6627 232.387 58.4393 232.186 58.2606C231.992 58.0968 231.747 58.0074 231.464 58.0074L231.449 58ZM226.668 69.8472C226.318 69.8472 226.058 69.7057 225.871 69.4153C225.663 69.1026 225.559 68.6334 225.559 68.0228C225.559 67.3154 225.685 66.6006 225.931 65.8857C226.177 65.1858 226.519 64.5975 226.951 64.1507C227.368 63.7188 227.822 63.5103 228.336 63.5103C228.552 63.5103 228.731 63.5476 228.887 63.622C229.051 63.7039 229.215 63.8231 229.379 63.972C229.528 64.1209 229.706 64.1954 229.915 64.1954L229.691 66.0049C229.535 66.6229 229.274 67.2335 228.924 67.8367C228.575 68.4324 228.187 68.9313 227.763 69.3036C227.368 69.661 226.996 69.8398 226.661 69.8398L226.668 69.8472Z" fill="#1868B3"/>
<path d="M239.126 68.239C238.947 68.239 238.784 68.2762 238.635 68.3507C238.486 68.4251 238.359 68.5368 238.27 68.6783C237.935 69.1772 237.607 69.5272 237.279 69.7283C236.959 69.9219 236.624 70.0187 236.267 70.0187C235.82 70.0187 235.485 69.8474 235.246 69.4974C235.008 69.14 234.882 68.6485 234.867 68.0454C235.708 68.0007 236.535 67.8592 237.317 67.6135C238.18 67.338 238.895 66.9433 239.446 66.4295C240.02 65.8934 240.31 65.253 240.31 64.5158C240.31 63.9945 240.206 63.5254 239.997 63.1382C239.781 62.7361 239.476 62.4233 239.074 62.2074C238.679 61.9915 238.203 61.8872 237.659 61.8872C236.78 61.8872 235.969 62.2 235.254 62.8106C234.554 63.4063 233.995 64.1881 233.593 65.1338C233.199 66.0721 232.99 67.0327 232.99 68.0007C232.99 68.723 233.124 69.3559 233.392 69.8921C233.668 70.4357 234.055 70.8601 234.554 71.1505C235.053 71.4409 235.634 71.5824 236.289 71.5824C236.825 71.5824 237.391 71.4633 237.972 71.2324C238.545 71.0016 239.037 70.6963 239.424 70.3389C239.841 69.9516 240.049 69.557 240.049 69.1623C240.049 68.9091 239.96 68.6932 239.781 68.5145C239.603 68.3358 239.379 68.2539 239.119 68.2539L239.126 68.239ZM237.495 63.5701C237.704 63.5701 237.882 63.6073 238.046 63.6892C238.21 63.7711 238.322 63.8679 238.404 64.002C238.486 64.1286 238.53 64.2775 238.53 64.4413C238.53 64.7987 238.352 65.1189 237.994 65.4317C237.607 65.7668 237.108 66.0348 236.512 66.2285C236.013 66.3923 235.522 66.4965 235.045 66.5412C235.157 66.0721 235.321 65.6253 235.529 65.2083C235.775 64.7094 236.08 64.3073 236.43 64.002C236.766 63.7116 237.116 63.5701 237.503 63.5701H237.495Z" fill="#1868B3"/>
</g>
<defs>
<clipPath id="clip0_263_36039">
<rect width="300" height="76.1914" fill="white"/>
</clipPath>
</defs>
</svg>
