<svg width="14" height="17" viewBox="0 0 14 17" fill="none" xmlns="http://www.w3.org/2000/svg">
<path d="M0.378006 5.4051C0.200121 4.82698 0.0667069 4.29332 0 3.7819C0 3.73743 0 3.69296 0 3.62625C0 3.22601 0.111178 1.26928 0.911661 0.846802L2.66828 0.0685546C3.09075 -0.10933 3.60217 0.0685547 3.80229 0.491032L5.35879 3.75967C5.55891 4.15991 5.40326 4.64909 5.02525 4.89368L4.13583 5.42734C3.80229 5.62746 3.64664 6.0277 3.75782 6.40571C4.11359 7.62867 5.15866 10.3414 8.16047 12.2537C8.49401 12.476 8.91648 12.4316 9.22778 12.187L9.9838 11.5199C10.3173 11.2308 10.8287 11.2308 11.1623 11.5199L13.7194 13.8546C14.0529 14.1659 14.0974 14.6996 13.8083 15.0554L12.6298 16.4784C12.4742 16.6563 12.2518 16.7675 12.0295 16.7897C11.229 16.8565 9.25002 16.723 6.71516 14.7218C4.1803 12.7206 2.09015 9.5854 0.911661 6.69477" fill="#1868B3"/>
</svg>
