<svg width="70" height="58" viewBox="0 0 70 58" fill="none" xmlns="http://www.w3.org/2000/svg">
<g clip-path="url(#clip0_263_36207)">
<path d="M36.2284 -0.000139984C36.6256 0.365635 37.0353 0.71908 37.4175 1.09581C41.1757 4.84581 44.9298 8.59765 48.6798 12.3513C48.8798 12.5367 49.0632 12.7393 49.2278 12.9568C49.414 13.2201 49.4977 13.5423 49.4631 13.8629C49.4285 14.1835 49.2781 14.4805 49.0401 14.698C48.8055 14.9169 48.5019 15.0472 48.1816 15.0665C47.8613 15.0858 47.5443 14.9927 47.2852 14.8035C47.0723 14.6325 46.8722 14.4461 46.6865 14.2459C43.8178 11.3818 40.9501 8.51588 38.0833 5.64813C37.912 5.47552 37.7312 5.3139 37.4654 5.06457C37.4462 5.39062 37.423 5.60433 37.423 5.81804C37.423 13.4459 37.423 21.0747 37.423 28.7043C37.423 30.6346 38.3819 31.9812 40.0807 32.4388C40.4113 32.52 40.7512 32.5578 41.0917 32.5511C48.8392 32.5575 56.5853 32.5575 64.33 32.5511C64.4848 32.5511 64.6396 32.5333 64.9382 32.5141C64.6985 32.2634 64.5382 32.0908 64.3725 31.9237C61.3586 28.9098 58.347 25.8959 55.3377 22.8821C55.1536 22.7132 54.9832 22.5299 54.8281 22.3341C54.6261 22.0683 54.5313 21.7363 54.5625 21.4039C54.5937 21.0715 54.7487 20.763 54.9966 20.5394C55.2344 20.3244 55.5392 20.198 55.8594 20.1816C56.1795 20.1651 56.4956 20.2595 56.7542 20.449C56.9141 20.5771 57.0642 20.7168 57.2036 20.8669C61.2321 24.8918 65.2593 28.9175 69.2851 32.9443C69.5385 33.1963 69.7632 33.4772 70.0002 33.7457V34.7047C69.6687 35.0732 69.3536 35.4581 69.0043 35.8088C62.0806 42.7353 55.1546 49.6594 48.2263 56.5813C47.0948 57.7115 46.5824 57.7101 45.4385 56.569L13.3983 24.5438C12.2585 23.4026 12.2557 22.8903 13.3873 21.7587C20.3283 14.8176 27.2721 7.87891 34.2187 0.942432C34.5529 0.608166 34.9201 0.308156 35.2721 -0.00830078L36.2284 -0.000139984ZM17.6149 24.5849L45.3823 52.3386V35.3513C43.9315 35.3513 42.5438 35.3664 41.1561 35.3513C38.0052 35.3116 35.4845 33.3717 34.8269 30.3647C34.6201 29.4222 34.6639 28.4207 34.6351 27.4467C34.605 26.4987 34.6282 25.5507 34.6282 24.5876L17.6149 24.5849ZM17.5012 21.708H34.5612V4.66456L17.5012 21.708ZM65.4136 35.3965H48.2894V52.5084L65.4136 35.3965Z" fill="white"/>
<path d="M14.6178 47.4205C11.455 47.4205 8.29142 47.4205 5.12685 47.4205C4.36516 47.4205 3.8158 46.9698 3.70346 46.3054C3.6443 45.9888 3.69994 45.6616 3.86039 45.3823C4.02084 45.1031 4.27559 44.8903 4.57887 44.782C4.7956 44.7176 5.02147 44.6893 5.24739 44.6984C11.5491 44.6984 17.8536 44.6984 24.1608 44.6984C25.1088 44.6984 25.6938 45.2231 25.6979 46.0519C25.702 46.8808 25.117 47.4219 24.1772 47.4219C20.9907 47.4246 17.8043 47.4242 14.6178 47.4205Z" fill="white"/>
<path d="M5.38001 31.1577C4.08267 31.1577 2.78398 31.1577 1.48664 31.1577C0.589326 31.1577 0.0125666 30.6234 0.000237103 29.8206C-0.0134623 28.9822 0.567394 28.4356 1.50717 28.4342C4.07993 28.4269 6.65273 28.4269 9.22548 28.4342C10.1338 28.4342 10.7762 29.0164 10.768 29.8041C10.7598 30.5919 10.1242 31.1549 9.20769 31.159C7.92953 31.1618 6.65543 31.1577 5.38001 31.1577Z" fill="white"/>
<path d="M14.4863 38.6736C13.2534 38.6736 12.0314 38.6818 10.804 38.6736C9.94363 38.6667 9.3244 38.0913 9.31481 37.3214C9.30522 36.5515 9.93268 35.9515 10.7807 35.9515C13.2822 35.9433 15.7828 35.9433 18.2825 35.9515C19.1578 35.9515 19.725 36.52 19.7127 37.3337C19.7003 38.1173 19.1455 38.6626 18.3044 38.6722C17.0317 38.6831 15.759 38.6736 14.4863 38.6736Z" fill="white"/>
<path d="M12.7104 16.8065C11.9144 16.8065 11.1185 16.8133 10.3239 16.8065C9.42937 16.7969 8.8581 16.2709 8.84851 15.464C8.83892 14.6571 9.41015 14.094 10.2855 14.0844C11.9678 14.0734 13.6502 14.0734 15.3325 14.0844C16.1435 14.0844 16.7489 14.6776 16.7613 15.4256C16.7736 16.1736 16.1517 16.7955 15.3023 16.8065C14.4529 16.8174 13.5748 16.8065 12.7104 16.8065Z" fill="white"/>
<path d="M3.5191 16.8064C2.83413 16.8064 2.15598 16.8132 1.47375 16.8064C0.58603 16.7954 0.00928377 16.2584 0.00106411 15.4624C-0.00715555 14.6665 0.564076 14.0925 1.4381 14.0829C2.8464 14.072 4.25475 14.072 5.66305 14.0829C6.53981 14.0898 7.10971 14.6501 7.10149 15.4611C7.09327 16.2721 6.51786 16.7954 5.63014 16.8064C4.92736 16.8132 4.22325 16.8064 3.5191 16.8064Z" fill="white"/>
<path d="M13.4422 31.1563C13.0755 31.1535 12.7245 31.007 12.4645 30.7484C12.2046 30.4897 12.0564 30.1394 12.0518 29.7727C12.065 29.4058 12.2225 29.059 12.49 28.8076C12.7576 28.5562 13.1136 28.4205 13.4806 28.4302C13.8369 28.4351 14.1771 28.5786 14.4293 28.8303C14.6815 29.082 14.8257 29.4219 14.8314 29.7782C14.8325 29.9604 14.7972 30.141 14.7277 30.3094C14.6581 30.4779 14.5556 30.6307 14.4263 30.7591C14.2969 30.8874 14.1433 30.9887 13.9743 31.0569C13.8053 31.1251 13.6244 31.1589 13.4422 31.1563Z" fill="white"/>
<path d="M50.8286 17.787C50.8298 17.6054 50.8669 17.4258 50.9377 17.2585C51.0086 17.0913 51.1117 16.9396 51.2413 16.8123C51.3709 16.6851 51.5243 16.5846 51.6928 16.5168C51.8613 16.449 52.0416 16.4151 52.2232 16.4171C52.5776 16.4384 52.9116 16.5901 53.1607 16.8431C53.4099 17.0961 53.5566 17.4323 53.5725 17.787C53.5727 17.9685 53.5371 18.1483 53.4678 18.3161C53.3985 18.4838 53.2969 18.6364 53.1686 18.7648C53.0404 18.8933 52.8882 18.9953 52.7205 19.0649C52.5529 19.1346 52.3731 19.1705 52.1916 19.1707C52.0103 19.1726 51.8306 19.1379 51.663 19.0688C51.4954 18.9997 51.3435 18.8975 51.2163 18.7683C51.089 18.6392 50.9891 18.4857 50.9225 18.3171C50.8559 18.1485 50.824 17.9682 50.8286 17.787Z" fill="white"/>
</g>
<defs>
<clipPath id="clip0_263_36207">
<rect width="70" height="57.4363" fill="white"/>
</clipPath>
</defs>
</svg>
