<svg width="80" height="80" viewBox="0 0 80 80" fill="none" xmlns="http://www.w3.org/2000/svg">
<circle cx="40" cy="40" r="40" fill="#F7941D"/>
<path d="M57.6667 28C58.0202 27.9996 58.3591 27.859 58.609 27.609C58.859 27.3591 58.9996 27.0202 59 26.6667V22.6667C58.9992 21.9597 58.718 21.2819 58.2181 20.7819C57.7182 20.282 57.0403 20.0008 56.3333 20H25C24.4697 20.0006 23.9614 20.2115 23.5864 20.5864C23.2115 20.9614 23.0006 21.4697 23 22V54.6667H20.3333C19.9798 54.6671 19.6409 54.8077 19.391 55.0576C19.141 55.3076 19.0004 55.6465 19 56V57.3333C19.0008 58.0403 19.282 58.7182 19.7819 59.2181C20.2819 59.718 20.9597 59.9992 21.6667 60H44.3333V58.6667H21.6667C21.3132 58.6663 20.9743 58.5257 20.7243 58.2757C20.4743 58.0257 20.3337 57.6868 20.3333 57.3333V56H35.5109C35.6981 56.2098 35.9276 56.3776 36.1842 56.4925C36.4408 56.6074 36.7188 56.6667 37 56.6667H44.6796L47.6667 60.4005L50.6538 56.6667H57C57.5302 56.6661 58.0386 56.4552 58.4135 56.0802C58.7885 55.7053 58.9994 55.1969 59 54.6667V40C58.9994 39.4698 58.7885 38.9614 58.4135 38.5865C58.0386 38.2115 57.5302 38.0006 57 38H55V28H57.6667ZM55 22.6667C55 22.313 55.1405 21.9739 55.3905 21.7239C55.6406 21.4738 55.9797 21.3333 56.3333 21.3333C56.687 21.3333 57.0261 21.4738 57.2761 21.7239C57.5262 21.9739 57.6667 22.313 57.6667 22.6667V26.6667H55V22.6667ZM35 40V54.6667H24.3333V22C24.3335 21.8233 24.4038 21.6538 24.5288 21.5288C24.6538 21.4038 24.8233 21.3335 25 21.3333H54.0254C53.7901 21.7383 53.6663 22.1983 53.6667 22.6667V38H37C36.4698 38.0006 35.9614 38.2115 35.5865 38.5865C35.2115 38.9614 35.0006 39.4698 35 40ZM57 39.3333C57.1768 39.3335 57.3462 39.4038 57.4712 39.5288C57.5962 39.6538 57.6665 39.8233 57.6667 40V54.6667C57.6665 54.8434 57.5962 55.0129 57.4712 55.1378C57.3462 55.2628 57.1768 55.3331 57 55.3333H50.0129L47.6667 58.2662L45.3204 55.3333H37C36.8233 55.3331 36.6538 55.2628 36.5288 55.1378C36.4038 55.0129 36.3335 54.8434 36.3333 54.6667V40C36.3335 39.8233 36.4038 39.6538 36.5288 39.5288C36.6538 39.4038 36.8233 39.3335 37 39.3333H57Z" fill="white"/>
<path d="M38.3334 54H42.3334V50.2963L43.0001 49.6945V46.236C43.0014 45.8534 42.8923 45.4785 42.686 45.1563C42.4796 44.8341 42.1847 44.5782 41.8366 44.4193C42.1581 44.0541 42.3348 43.5838 42.3334 43.0973V42.8241C42.3347 42.4524 42.2318 42.0877 42.0363 41.7716C41.8409 41.4554 41.5608 41.2003 41.2278 41.0352C40.9499 40.8971 40.6437 40.8252 40.3334 40.8252C40.0231 40.8252 39.7169 40.8971 39.439 41.0352C39.106 41.2003 38.8259 41.4554 38.6305 41.7716C38.4351 42.0878 38.3322 42.4524 38.3334 42.8241V43.0973C38.3321 43.5839 38.5088 44.0541 38.8303 44.4193C38.4822 44.5782 38.1873 44.8341 37.9809 45.1563C37.7745 45.4785 37.6655 45.8534 37.6668 46.2361V49.6946L38.3334 50.2963V54ZM39.6668 42.8241C39.6668 42.6473 39.737 42.4777 39.862 42.3527C39.987 42.2276 40.1566 42.1574 40.3334 42.1574C40.5102 42.1574 40.6798 42.2276 40.8048 42.3527C40.9299 42.4777 41.0001 42.6473 41.0001 42.8241V43.0973C41.0005 43.2306 40.9608 43.361 40.886 43.4714C40.8113 43.5818 40.705 43.6672 40.581 43.7163L40.3334 43.8153L40.0858 43.7163C39.9619 43.6672 39.8556 43.5818 39.7808 43.4714C39.7061 43.361 39.6663 43.2306 39.6668 43.0973V42.8241ZM39.0001 46.2361C38.9997 46.1027 39.0394 45.9723 39.1142 45.8619C39.1889 45.7515 39.2952 45.6662 39.4192 45.6171L40.3334 45.2514L41.2477 45.6171C41.3716 45.6662 41.4779 45.7515 41.5527 45.8619C41.6274 45.9723 41.6672 46.1027 41.6668 46.2361V49.1019L41.0001 49.7037V52.6667H39.6668V49.7037L39.0001 49.1019V46.2361Z" fill="white"/>
<path d="M44.9999 54H48.9999V50.2963L49.6666 49.6945V46.236C49.6679 45.8534 49.5588 45.4785 49.3525 45.1563C49.1461 44.8341 48.8512 44.5782 48.5031 44.4193C48.8246 44.0541 49.0013 43.5838 48.9999 43.0973V42.8241C49.0012 42.4524 48.8983 42.0877 48.7029 41.7716C48.5074 41.4554 48.2273 41.2003 47.8943 41.0352C47.6164 40.8971 47.3102 40.8252 46.9999 40.8252C46.6896 40.8252 46.3834 40.8971 46.1055 41.0352C45.7725 41.2003 45.4924 41.4554 45.297 41.7716C45.1016 42.0878 44.9987 42.4524 44.9999 42.8241V43.0973C44.9986 43.5839 45.1753 44.0541 45.4968 44.4193C45.1487 44.5782 44.8538 44.8341 44.6474 45.1563C44.441 45.4785 44.332 45.8534 44.3333 46.2361V49.6946L44.9999 50.2963V54ZM46.3333 42.8241C46.3333 42.6473 46.4035 42.4777 46.5285 42.3527C46.6535 42.2276 46.8231 42.1574 46.9999 42.1574C47.1767 42.1574 47.3463 42.2276 47.4713 42.3527C47.5964 42.4777 47.6666 42.6473 47.6666 42.8241V43.0973C47.667 43.2306 47.6273 43.361 47.5525 43.4714C47.4778 43.5818 47.3715 43.6672 47.2475 43.7163L46.9999 43.8153L46.7523 43.7163C46.6284 43.6672 46.5221 43.5818 46.4473 43.4714C46.3726 43.361 46.3328 43.2306 46.3333 43.0973V42.8241ZM45.6666 46.2361C45.6662 46.1027 45.7059 45.9723 45.7807 45.8619C45.8554 45.7515 45.9617 45.6662 46.0857 45.6171L46.9999 45.2514L47.9142 45.6171C48.0382 45.6662 48.1444 45.7515 48.2192 45.8619C48.2939 45.9723 48.3337 46.1027 48.3333 46.2361V49.1019L47.6666 49.7037V52.6667H46.3333V49.7037L45.6666 49.1019V46.2361Z" fill="white"/>
<path d="M51.6667 54H55.6667V50.2963L56.3333 49.6945V46.236C56.3346 45.8534 56.2256 45.4785 56.0192 45.1563C55.8129 44.8341 55.5179 44.5782 55.1699 44.4193C55.4913 44.0541 55.668 43.5838 55.6667 43.0973V42.8241C55.6679 42.4524 55.565 42.0877 55.3696 41.7716C55.1742 41.4554 54.8941 41.2003 54.561 41.0352C54.2831 40.8971 53.977 40.8252 53.6667 40.8252C53.3563 40.8252 53.0502 40.8971 52.7723 41.0352C52.4393 41.2003 52.1592 41.4554 51.9637 41.7716C51.7683 42.0878 51.6654 42.4524 51.6667 42.8241V43.0973C51.6653 43.5839 51.842 44.0541 52.1635 44.4193C51.8154 44.5782 51.5205 44.8341 51.3141 45.1563C51.1078 45.4785 50.9987 45.8534 51 46.2361V49.6946L51.6667 50.2963V54ZM53 42.8241C53 42.6473 53.0702 42.4777 53.1953 42.3527C53.3203 42.2276 53.4899 42.1574 53.6667 42.1574C53.8435 42.1574 54.0131 42.2276 54.1381 42.3527C54.2631 42.4777 54.3333 42.6473 54.3333 42.8241V43.0973C54.3338 43.2306 54.294 43.361 54.2193 43.4714C54.1445 43.5818 54.0382 43.6672 53.9143 43.7163L53.6667 43.8153L53.4191 43.7163C53.2951 43.6672 53.1888 43.5818 53.1141 43.4714C53.0393 43.361 52.9996 43.2306 53 43.0973V42.8241ZM52.3333 46.2361C52.3329 46.1027 52.3727 45.9723 52.4474 45.8619C52.5222 45.7515 52.6285 45.6662 52.7524 45.6171L53.6667 45.2514L54.5809 45.6171C54.7049 45.6662 54.8112 45.7515 54.8859 45.8619C54.9607 45.9723 55.0004 46.1027 55 46.2361V49.1019L54.3333 49.7037V52.6667H53V49.7037L52.3333 49.1019V46.2361Z" fill="white"/>
<path d="M45.6667 36.6666C46.9852 36.6666 48.2741 36.2756 49.3705 35.5431C50.4668 34.8105 51.3213 33.7693 51.8259 32.5511C52.3304 31.333 52.4625 29.9925 52.2052 28.6993C51.948 27.4061 51.3131 26.2182 50.3807 25.2859C49.4484 24.3535 48.2605 23.7186 46.9673 23.4614C45.6741 23.2041 44.3336 23.3361 43.1154 23.8407C41.8973 24.3453 40.8561 25.1998 40.1235 26.2961C39.391 27.3924 39 28.6814 39 29.9999C39.002 31.7674 39.705 33.462 40.9548 34.7118C42.2046 35.9616 43.8992 36.6646 45.6667 36.6666ZM46.3333 24.7097C47.1657 24.814 47.9616 25.1132 48.6565 25.5831C49.3513 26.053 49.9254 26.6803 50.332 27.414C50.7387 28.1477 50.9664 28.967 50.9965 29.8053C51.0267 30.6436 50.8586 31.4772 50.5058 32.2382L46.3333 29.6304V24.7097ZM49.7981 33.3682C49.2987 33.9822 48.6688 34.4771 47.9541 34.817C47.2395 35.1569 46.458 35.3333 45.6667 35.3333C44.8753 35.3333 44.0939 35.1569 43.3792 34.817C42.6646 34.4771 42.0346 33.9822 41.5353 33.3682L45.6667 30.7861L49.7981 33.3682ZM40.3333 29.9999C40.3351 28.7015 40.8099 27.4483 41.6688 26.4746C42.5277 25.5009 43.712 24.8735 45 24.7097V29.6304L40.8275 32.2382C40.5015 31.5371 40.3328 30.7731 40.3333 29.9999Z" fill="white"/>
<path d="M37.6667 35.3333H36.3334V26H35.0001V35.3333H33.6667V28H32.3334V35.3333H31.0001V30H29.6667V35.3333H28.3334V32H27.0001V35.3333H25.6667V36.6667H37.6667V35.3333Z" fill="white"/>
<path d="M25.6667 24H33.6667V25.3333H25.6667V24Z" fill="white"/>
<path d="M25.6667 38.6667H27.0001V40.0001H25.6667V38.6667Z" fill="white"/>
<path d="M28.3333 38.6667H33.6666V40.0001H28.3333V38.6667Z" fill="white"/>
<path d="M25.6667 42.6667H27.0001V44.0001H25.6667V42.6667Z" fill="white"/>
<path d="M28.3333 42.6667H33.6666V44.0001H28.3333V42.6667Z" fill="white"/>
<path d="M25.6667 46.6667H27.0001V48.0001H25.6667V46.6667Z" fill="white"/>
<path d="M28.3333 46.6667H33.6666V48.0001H28.3333V46.6667Z" fill="white"/>
<path d="M25.6667 50.6667H27.0001V52.0001H25.6667V50.6667Z" fill="white"/>
<path d="M28.3333 50.6667H33.6666V52.0001H28.3333V50.6667Z" fill="white"/>
</svg>
