<svg width="26" height="26" viewBox="0 0 26 26" fill="none" xmlns="http://www.w3.org/2000/svg">
<path d="M13 0C5.82521 0 0 5.81257 0 13C0 20.1874 5.82521 26 13 26C20.1748 26 26 20.1738 26 13C26 5.82618 20.1748 0 13 0ZM19.1419 10.155V11.8021C18.357 11.8021 17.5996 11.6524 16.8835 11.3529C16.429 11.1623 15.9883 10.9173 15.6028 10.6178V15.6681C15.6028 16.8115 15.1483 17.8733 14.3358 18.6764C13.661 19.3298 12.821 19.7518 11.8983 19.888C11.678 19.9152 11.4576 19.9424 11.2373 19.9424C10.2458 19.9424 9.3231 19.6293 8.55191 19.044C8.4142 18.9351 8.27649 18.8126 8.13877 18.6901C7.24365 17.8188 6.7892 16.6346 6.85805 15.3958C6.91314 14.4429 7.29873 13.5445 7.94598 12.8366C8.78602 11.8974 9.97034 11.3801 11.2373 11.3801C11.4576 11.3801 11.678 11.3937 11.8983 11.4346V13.7215C11.6917 13.6534 11.4714 13.6126 11.2511 13.6126C10.0943 13.6126 9.15784 14.5382 9.17161 15.6817C9.17161 16.4168 9.58474 17.0565 10.1769 17.4105C10.4523 17.5738 10.7828 17.6827 11.1271 17.6963C11.4025 17.7099 11.6504 17.6691 11.8983 17.601C12.7246 17.3288 13.3167 16.5665 13.3167 15.6545V12.2785V6.11204H15.6028C15.6028 6.32984 15.6303 6.54764 15.6716 6.76545C15.8506 7.62304 16.3326 8.37173 17.0074 8.87539C17.5996 9.311 18.3432 9.58325 19.1419 9.58325V10.1958V10.155Z" fill="#828282"/>
</svg>
