<svg width="26" height="26" viewBox="0 0 26 26" fill="none" xmlns="http://www.w3.org/2000/svg">
<path d="M12.2288 10.2224C11.9396 9.96381 11.4989 10.1952 11.4989 10.6172V15.3952C11.4989 15.8172 11.9396 16.0486 12.2288 15.79L14.9555 13.4078C15.1896 13.2036 15.1896 12.8224 14.9555 12.6183L12.2288 10.2361V10.2224Z" fill="#828282"/>
<path d="M13 0C5.82521 0 0 5.81256 0 13C0 20.1874 5.82521 26 13 26C20.1748 26 26 20.1738 26 13C26 5.82618 20.1748 0 13 0ZM19.4449 14.4565C19.4449 16.444 17.9989 18.0503 16.2087 18.0503H9.76377C7.97352 18.0503 6.52754 16.444 6.52754 14.4565V11.5298C6.52754 9.54241 7.97352 7.93613 9.76377 7.93613H16.2087C17.9989 7.93613 19.4449 9.54241 19.4449 11.5298V14.4565Z" fill="#828282"/>
</svg>
